<svg width="136" height="25" viewBox="0 0 136 25" fill="none" xmlns="http://www.w3.org/2000/svg">
<path d="M12.2042 2.7C12.1082 3.108 12.0002 3.42 11.8802 3.636C11.7602 3.828 11.5322 4.092 11.1962 4.428C11.0522 4.38 10.8482 4.344 10.5842 4.32C10.3202 4.272 10.0562 4.236 9.79222 4.212C9.48022 4.188 9.14422 4.164 8.78422 4.14C7.84822 4.02 7.04422 4.152 6.37222 4.536C5.70022 4.92 5.14822 5.448 4.71622 6.12C4.23622 6.864 3.99622 7.752 3.99622 8.784C3.99622 9.24 4.04422 9.684 4.14022 10.116C4.23622 10.548 4.36822 10.908 4.53622 11.196C4.70422 11.484 4.92022 11.784 5.18422 12.096C5.44822 12.384 5.73622 12.636 6.04822 12.852C6.38422 13.068 6.75622 13.212 7.16422 13.284C7.57222 13.356 8.02822 13.32 8.53222 13.176C8.91622 13.056 9.28822 12.876 9.64822 12.636C9.96022 12.444 10.2722 12.18 10.5842 11.844C10.9202 11.508 11.2082 11.076 11.4482 10.548L14.1122 11.448C14.1122 11.784 14.0282 12.132 13.8602 12.492C13.7162 12.828 13.5362 13.164 13.3202 13.5C13.1042 13.812 12.8882 14.1 12.6722 14.364C12.4562 14.628 12.2762 14.844 12.1322 15.012C11.9642 15.228 11.6522 15.48 11.1962 15.768C10.7642 16.032 10.3082 16.236 9.82822 16.38C9.37222 16.524 8.92822 16.62 8.49622 16.668C8.06422 16.692 7.66822 16.692 7.30822 16.668C6.82822 16.62 6.18022 16.452 5.36422 16.164C4.57222 15.876 3.86422 15.42 3.24022 14.796C2.73622 14.292 2.32822 13.716 2.01622 13.068C1.72822 12.42 1.50022 11.784 1.33222 11.16C1.16422 10.512 1.05622 9.912 1.00822 9.36C0.984219 8.808 0.984219 8.376 1.00822 8.064C1.03222 7.272 1.14022 6.54 1.33222 5.868C1.52422 5.196 1.76422 4.584 2.05222 4.032C2.36422 3.456 2.71222 2.964 3.09622 2.556C3.48022 2.124 3.87622 1.764 4.28422 1.476C4.69222 1.236 5.07622 1.032 5.43622 0.864C5.82022 0.696 6.18022 0.564 6.51622 0.467999C7.21222 0.275999 8.02822 0.179999 8.96422 0.179999C9.92422 0.155999 10.9562 0.359999 12.0602 0.791999C12.1322 1.128 12.1802 1.416 12.2042 1.656C12.2282 1.872 12.2402 2.064 12.2402 2.232C12.2402 2.424 12.2282 2.58 12.2042 2.7ZM24.3168 4.032C24.6288 4.512 24.9288 5.064 25.2168 5.688C25.5288 6.288 25.8168 7.08 26.0808 8.064C26.3688 9.024 26.6568 10.236 26.9448 11.7C27.2328 13.14 27.5328 14.928 27.8448 17.064L25.7568 18L25.0368 15.66C24.4128 16.164 23.8008 16.536 23.2008 16.776C22.6008 16.992 22.0368 17.136 21.5088 17.208C20.9808 17.256 20.5128 17.268 20.1048 17.244C19.6968 17.196 19.3968 17.148 19.2048 17.1C18.9408 17.052 18.5928 16.872 18.1608 16.56C17.7528 16.224 17.4168 15.828 17.1528 15.372C16.9128 14.916 16.7688 14.412 16.7208 13.86C16.6728 13.308 16.7568 12.744 16.9728 12.168C17.2368 11.736 17.5248 11.328 17.8368 10.944C18.1488 10.56 18.5208 10.224 18.9528 9.936C19.4088 9.624 19.9368 9.36 20.5368 9.144C21.1608 8.904 21.9048 8.724 22.7688 8.604C22.6488 7.932 22.5168 7.464 22.3728 7.2C22.2528 6.936 22.1568 6.756 22.0848 6.66C22.0128 6.54 21.8088 6.384 21.4728 6.192C21.1368 5.976 20.6568 5.952 20.0328 6.12C19.7448 6.192 19.3848 6.348 18.9528 6.588C18.5208 6.828 18.1008 7.08 17.6928 7.344C17.3088 7.608 16.9608 7.848 16.6488 8.064C16.3608 8.28 16.2048 8.4 16.1808 8.424C16.0368 8.376 15.8208 8.244 15.5328 8.028C15.2448 7.788 14.8008 7.404 14.2008 6.876C14.9688 6.036 15.7008 5.364 16.3968 4.86C17.1168 4.332 17.7528 3.924 18.3048 3.636C18.8568 3.348 19.3128 3.156 19.6728 3.06C20.0328 2.94 20.2368 2.868 20.2848 2.844C20.4288 2.82 20.6448 2.808 20.9328 2.808C21.2448 2.784 21.5808 2.808 21.9408 2.88C22.3248 2.952 22.7208 3.072 23.1288 3.24C23.5368 3.408 23.9328 3.672 24.3168 4.032ZM21.3648 15.12C21.6288 15.144 21.9168 15.108 22.2288 15.012C22.4928 14.94 22.8048 14.832 23.1648 14.688C23.5488 14.544 23.9688 14.304 24.4248 13.968C24.2808 13.272 24.1488 12.756 24.0288 12.42C23.9088 12.06 23.7768 11.82 23.6328 11.7C23.5128 11.58 23.3568 11.556 23.1648 11.628C22.9968 11.676 22.7688 11.748 22.4808 11.844C22.1208 11.964 21.8448 12.072 21.6528 12.168C21.5568 12.216 21.4248 12.288 21.2568 12.384C21.1128 12.456 20.9688 12.576 20.8248 12.744C20.6808 12.888 20.5608 13.068 20.4648 13.284C20.3688 13.476 20.3208 13.692 20.3208 13.932C20.3208 14.196 20.3928 14.448 20.5368 14.688C20.6808 14.928 20.9568 15.072 21.3648 15.12ZM32.4787 3.78C32.8867 3.732 33.2587 3.768 33.5947 3.888C33.7627 3.96 33.9307 4.032 34.0987 4.104C34.1707 4.152 34.2787 4.296 34.4227 4.536C34.5907 4.776 34.7587 5.076 34.9267 5.436C35.0947 5.796 35.2627 6.18 35.4307 6.588C35.5987 6.972 35.7547 7.332 35.8987 7.668C35.9947 7.932 36.1027 8.196 36.2227 8.46C36.3427 8.7 36.4747 8.976 36.6187 9.288C36.7627 9.6 36.9307 9.924 37.1227 10.26C37.0987 10.236 37.1467 10.14 37.2667 9.972C37.4107 9.804 37.5547 9.624 37.6987 9.432C37.8427 9.24 37.9747 9.072 38.0947 8.928C38.2387 8.76 38.2987 8.688 38.2747 8.712C38.0827 8.952 38.0707 8.928 38.2387 8.64C38.4307 8.352 38.7067 7.98 39.0667 7.524C39.4267 7.044 39.8107 6.576 40.2187 6.12C40.6267 5.664 40.9627 5.388 41.2267 5.292C41.4187 5.244 41.6347 5.196 41.8747 5.148C42.0667 5.1 42.2947 5.076 42.5587 5.076C42.8227 5.052 43.1107 5.064 43.4227 5.112L43.6747 17.928C43.4827 18.168 43.2307 18.324 42.9187 18.396C42.6307 18.468 42.3307 18.504 42.0187 18.504C41.6587 18.504 41.2747 18.48 40.8667 18.432C40.8427 18.288 40.8067 17.988 40.7587 17.532C40.7347 17.052 40.6987 16.5 40.6507 15.876C40.6027 15.252 40.5427 14.604 40.4707 13.932C40.4227 13.236 40.3627 12.6 40.2907 12.024C40.2427 11.448 40.1947 10.98 40.1467 10.62C40.1227 10.236 40.0987 10.056 40.0747 10.08C39.8827 10.368 39.6067 10.8 39.2467 11.376C38.8867 11.928 38.5147 12.492 38.1307 13.068C37.7707 13.644 37.4347 14.148 37.1227 14.58C36.8107 14.988 36.6187 15.168 36.5467 15.12C36.4747 15.072 36.3667 14.892 36.2227 14.58C36.0787 14.268 35.9227 13.92 35.7547 13.536C35.6107 13.152 35.4667 12.78 35.3227 12.42C35.2027 12.036 35.1067 11.76 35.0347 11.592C34.8427 11.112 34.6627 10.644 34.4947 10.188C34.3507 9.708 34.2307 9.48 34.1347 9.504C34.1107 9.504 34.0507 9.6 33.9547 9.792C33.8827 9.984 33.7987 10.212 33.7027 10.476C33.6307 10.716 33.5467 10.968 33.4507 11.232C33.3547 11.472 33.2947 11.652 33.2707 11.772C33.2467 11.844 33.1747 12.072 33.0547 12.456C32.9587 12.816 32.8267 13.248 32.6587 13.752C32.5147 14.256 32.3587 14.796 32.1907 15.372C32.0227 15.924 31.8547 16.44 31.6867 16.92C31.5427 17.4 31.3987 17.796 31.2547 18.108C31.1347 18.42 31.0507 18.576 31.0027 18.576C30.9067 18.576 30.7987 18.54 30.6787 18.468C30.5587 18.42 30.4027 18.348 30.2107 18.252C30.0187 18.18 29.7787 18.048 29.4907 17.856L32.4787 3.78ZM54.7287 8.352C55.0167 8.832 55.2567 9.48 55.4487 10.296C55.6407 11.112 55.6887 11.952 55.5927 12.816C55.5207 13.656 55.2447 14.46 54.7647 15.228C54.2847 15.996 53.5287 16.572 52.4967 16.956C51.4647 17.34 50.5167 17.412 49.6527 17.172C48.8127 16.908 48.0807 16.476 47.4567 15.876C46.8327 15.276 46.3407 14.58 45.9807 13.788C45.6447 12.996 45.4767 12.252 45.4767 11.556C45.4527 10.308 45.6447 9.324 46.0527 8.604C46.4607 7.86 46.9287 7.296 47.4567 6.912C47.9847 6.528 48.5007 6.276 49.0047 6.156C49.5087 6.036 49.8567 5.964 50.0487 5.94C50.4087 5.892 50.7927 5.904 51.2007 5.976C51.6327 6.048 52.0647 6.18 52.4967 6.372C52.9287 6.564 53.3367 6.828 53.7207 7.164C54.1047 7.5 54.4407 7.896 54.7287 8.352ZM51.0567 14.04C51.1767 14.016 51.3447 13.932 51.5607 13.788C51.7767 13.62 51.9687 13.392 52.1367 13.104C52.3287 12.792 52.4607 12.42 52.5327 11.988C52.6287 11.556 52.6167 11.052 52.4967 10.476C52.4007 9.9 52.2087 9.456 51.9207 9.144C51.6327 8.832 51.3327 8.604 51.0207 8.46C50.7087 8.292 50.4207 8.196 50.1567 8.172C49.8927 8.148 49.7247 8.136 49.6527 8.136C49.3647 8.16 49.0767 8.28 48.7887 8.496C48.5007 8.64 48.3087 8.88 48.2127 9.216C48.1167 9.528 48.0567 9.864 48.0327 10.224C48.0327 10.56 48.0567 10.86 48.1047 11.124C48.1527 11.388 48.2007 11.676 48.2487 11.988C48.3207 12.3 48.4887 12.636 48.7527 12.996C49.0167 13.332 49.2927 13.584 49.5807 13.752C49.8927 13.92 50.1807 14.016 50.4447 14.04C50.7087 14.064 50.9127 14.064 51.0567 14.04ZM68.2298 4.176C68.3498 4.296 68.4218 4.488 68.4458 4.752C68.4698 4.992 68.4338 5.364 68.3378 5.868C67.8818 8.196 67.5218 10.044 67.2578 11.412C67.0178 12.78 66.8378 13.824 66.7178 14.544C66.6458 14.904 66.5858 15.192 66.5378 15.408C66.5138 15.624 66.4898 15.804 66.4658 15.948C66.4658 16.068 66.4538 16.176 66.4298 16.272C66.4058 16.344 66.3818 16.428 66.3578 16.524C66.3338 16.716 66.2618 17.088 66.1418 17.64C66.0218 18.192 65.8658 18.744 65.6738 19.296C65.5058 19.872 65.3018 20.424 65.0618 20.952C64.8218 21.48 64.5458 21.924 64.2338 22.284C63.6098 23.004 62.9378 23.52 62.2178 23.832C61.4978 24.144 60.8618 24.3 60.3098 24.3C59.7578 24.276 59.3138 24.24 58.9778 24.192C58.6418 24.168 58.2338 24.084 57.7538 23.94C56.9138 23.58 56.1098 23.184 55.3418 22.752C54.5738 22.32 53.8538 21.84 53.1818 21.312L55.8098 17.964C56.6978 18.876 57.5618 19.512 58.4018 19.872C59.2418 20.232 59.8418 20.424 60.2018 20.448C60.3938 20.52 60.6338 20.556 60.9218 20.556C61.2098 20.556 61.4858 20.52 61.7498 20.448C62.0378 20.376 62.3018 20.28 62.5418 20.16C62.8058 20.04 62.9978 19.884 63.1178 19.692C63.3098 19.452 63.4898 19.152 63.6578 18.792C63.8018 18.48 63.9458 18.096 64.0898 17.64C64.2338 17.16 64.3418 16.584 64.4138 15.912C64.0058 16.008 63.6098 16.056 63.2258 16.056C62.8658 16.056 62.5418 16.032 62.2538 15.984C61.9658 15.936 61.7258 15.888 61.5338 15.84C61.3658 15.768 61.2818 15.732 61.2818 15.732C60.8018 15.564 60.3818 15.312 60.0218 14.976C59.6618 14.616 59.3738 14.22 59.1578 13.788C58.9658 13.332 58.8458 12.864 58.7978 12.384C58.7498 11.88 58.7978 11.388 58.9418 10.908C59.0858 10.404 59.3138 9.972 59.6258 9.612C59.9378 9.228 60.2858 8.904 60.6698 8.64C61.0778 8.376 61.4858 8.172 61.8938 8.028C62.3258 7.884 62.7098 7.788 63.0458 7.74C63.0698 7.74 63.2018 7.728 63.4418 7.704C63.6818 7.656 64.0178 7.632 64.4498 7.632C64.6658 7.632 64.8818 7.644 65.0978 7.668C65.3138 7.668 65.5418 7.68 65.7818 7.704L66.5018 4.536C66.8138 4.416 67.0778 4.332 67.2938 4.284C67.5098 4.212 67.6898 4.164 67.8338 4.14C68.0018 4.116 68.1338 4.128 68.2298 4.176ZM64.8098 12.888C64.9298 12.672 65.0138 12.36 65.0618 11.952C65.1098 11.52 65.1578 11.196 65.2058 10.98C65.2298 10.884 65.1458 10.788 64.9538 10.692C64.7618 10.572 64.5218 10.5 64.2338 10.476C63.9458 10.452 63.6458 10.5 63.3338 10.62C63.0218 10.74 62.7578 10.98 62.5418 11.34C62.2058 11.916 62.1458 12.396 62.3618 12.78C62.5778 13.14 62.8058 13.344 63.0458 13.392C63.4538 13.512 63.8138 13.512 64.1258 13.392C64.4618 13.248 64.6898 13.08 64.8098 12.888ZM79.693 9.972C79.765 10.572 79.717 11.028 79.549 11.34C79.381 11.628 79.237 11.844 79.117 11.988C78.997 12.132 78.673 12.288 78.145 12.456C77.617 12.624 77.005 12.696 76.309 12.672C76.309 12.672 76.213 12.66 76.021 12.636C75.829 12.612 75.589 12.564 75.301 12.492C75.037 12.42 74.737 12.312 74.401 12.168C74.065 12 73.741 11.784 73.429 11.52C73.309 11.712 73.273 11.952 73.321 12.24C73.393 12.528 73.453 12.768 73.501 12.96C73.549 13.128 73.705 13.308 73.969 13.5C74.233 13.668 74.557 13.812 74.941 13.932C75.253 14.004 75.577 14.04 75.913 14.04C76.201 14.04 76.513 13.992 76.849 13.896C77.209 13.8 77.557 13.608 77.893 13.32L78.937 15.3C78.817 15.396 78.589 15.564 78.253 15.804C77.941 16.02 77.617 16.176 77.281 16.272C76.873 16.392 76.381 16.476 75.805 16.524C75.253 16.572 74.689 16.536 74.113 16.416C73.825 16.368 73.489 16.26 73.105 16.092C72.745 15.9 72.385 15.648 72.025 15.336C71.689 15 71.377 14.604 71.089 14.148C70.825 13.668 70.645 13.116 70.549 12.492C70.453 11.868 70.453 11.232 70.549 10.584C70.645 9.936 70.837 9.336 71.125 8.784C71.413 8.208 71.797 7.704 72.277 7.272C72.757 6.816 73.321 6.48 73.969 6.264C74.665 6 75.385 5.94 76.129 6.084C76.873 6.204 77.545 6.504 78.145 6.984C78.529 7.296 78.865 7.716 79.153 8.244C79.465 8.772 79.645 9.348 79.693 9.972ZM77.137 10.476C77.281 10.212 77.317 9.948 77.245 9.684C77.173 9.396 77.053 9.156 76.885 8.964C76.645 8.7 76.369 8.532 76.057 8.46C75.745 8.388 75.481 8.364 75.265 8.388C75.049 8.436 74.833 8.532 74.617 8.676C74.401 8.796 74.257 8.916 74.185 9.036C74.017 9.324 73.981 9.624 74.077 9.936C74.173 10.224 74.485 10.452 75.013 10.62C75.469 10.764 75.889 10.848 76.273 10.872C76.657 10.872 76.945 10.74 77.137 10.476ZM94.5773 17.748C94.4333 17.94 94.2893 18.096 94.1453 18.216C94.0013 18.336 93.8333 18.42 93.6413 18.468C93.4733 18.54 93.2693 18.54 93.0293 18.468C92.6933 18.372 92.4293 18.252 92.2373 18.108C92.0693 17.964 91.9253 17.808 91.8053 17.64C91.6853 17.472 91.6013 17.28 91.5533 17.064L91.3013 7.092L90.1493 6.876L89.9693 8.1C89.7053 9.54 89.3573 10.908 88.9253 12.204C88.5173 13.5 87.9533 14.64 87.2333 15.624C86.5373 16.608 85.6733 17.4 84.6413 18C83.6093 18.576 82.3613 18.9 80.8973 18.972L81.0413 15.372C82.3613 15.228 83.4413 14.796 84.2813 14.076C85.1213 13.356 85.7933 12.516 86.2973 11.556C86.8013 10.572 87.1733 9.552 87.4133 8.496C87.6773 7.44 87.8813 6.504 88.0253 5.688L88.2053 4.608L94.2173 4.752L94.5773 17.748ZM96.7899 5.616C97.7019 5.184 98.3019 4.932 98.5899 4.86C98.9019 4.764 99.1179 4.716 99.2379 4.716C99.4539 4.692 99.6579 4.824 99.8499 5.112C99.9459 5.376 100.03 5.796 100.102 6.372C100.198 6.924 100.294 7.776 100.39 8.928L103.666 4.824L105.394 6.12L102.586 10.656L108.094 14.796L105.79 16.632L101.974 13.788L100.966 13.176L100.858 17.208C100.474 17.472 100.126 17.64 99.8139 17.712C99.5259 17.784 99.2139 17.688 98.8779 17.424C98.5419 15.504 98.2539 13.884 98.0139 12.564C97.7739 11.22 97.5699 10.116 97.4019 9.252C97.2579 8.364 97.1379 7.68 97.0419 7.2C96.9699 6.72 96.9099 6.36 96.8619 6.12C96.8139 5.88 96.7899 5.736 96.7899 5.688C96.7899 5.64 96.7899 5.616 96.7899 5.616ZM112.636 7.344C112.636 7.8 112.648 8.088 112.672 8.208C112.72 8.4 112.744 8.52 112.744 8.568C112.768 8.616 112.792 8.844 112.816 9.252C112.84 9.54 112.876 9.864 112.924 10.224C112.996 10.584 113.092 10.944 113.212 11.304C113.356 11.664 113.536 11.988 113.752 12.276C113.992 12.564 114.292 12.78 114.652 12.924C115.18 13.116 115.588 13.128 115.876 12.96C116.164 12.792 116.368 12.636 116.488 12.492C116.776 12.156 116.908 11.796 116.884 11.412C116.86 11.004 116.824 10.644 116.776 10.332C116.704 9.852 116.608 9.324 116.488 8.748C116.368 8.148 116.224 7.5 116.056 6.804L118.864 6.624C119.128 8.016 119.368 9.096 119.584 9.864C119.824 10.608 119.992 11.1 120.088 11.34C120.28 11.676 120.604 12.204 121.06 12.924C121.516 13.62 122.176 14.4 123.04 15.264C122.848 15.576 122.596 15.816 122.284 15.984C121.996 16.176 121.804 16.308 121.708 16.38C121.612 16.428 121.432 16.5 121.168 16.596C120.76 16.716 120.376 16.788 120.016 16.812C119.68 16.812 119.452 16.74 119.332 16.596C119.188 16.356 118.972 16.044 118.684 15.66C118.42 15.252 118.048 14.7 117.568 14.004C117.304 14.484 117.004 14.88 116.668 15.192C116.332 15.48 115.996 15.72 115.66 15.912C115.324 16.08 115 16.2 114.688 16.272C114.4 16.344 114.16 16.38 113.968 16.38C113.824 16.38 113.68 16.38 113.536 16.38C113.392 16.38 113.236 16.368 113.068 16.344C112.756 16.32 112.312 16.116 111.736 15.732C111.16 15.324 110.668 14.784 110.26 14.112C110.068 13.728 109.9 13.32 109.756 12.888C109.612 12.432 109.492 11.928 109.396 11.376C109.3 10.824 109.228 10.2 109.18 9.504C109.132 8.808 109.132 8.004 109.18 7.092L112.636 7.344ZM124.378 6.48C125.098 6.528 125.662 6.588 126.07 6.66C126.478 6.732 126.778 6.804 126.97 6.876C127.21 6.972 127.354 7.056 127.402 7.128C127.426 7.104 127.438 7.2 127.438 7.416C127.438 7.608 127.438 7.908 127.438 8.316C127.438 8.724 127.426 9.312 127.402 10.08L130.534 10.152L130.858 6.804C131.266 6.516 131.77 6.384 132.37 6.408C132.994 6.408 133.51 6.492 133.918 6.66C133.822 7.308 133.738 7.956 133.666 8.604C133.618 9.156 133.57 9.756 133.522 10.404C133.474 11.052 133.462 11.652 133.486 12.204C133.534 13.044 133.654 13.788 133.846 14.436C134.038 15.06 134.266 15.588 134.53 16.02C134.794 16.524 135.118 16.956 135.502 17.316C135.31 17.652 134.986 17.892 134.53 18.036C134.098 18.18 133.738 18.216 133.45 18.144C133.162 18.072 132.814 17.904 132.406 17.64C132.022 17.376 131.698 17.004 131.434 16.524C131.146 15.996 130.918 15.348 130.75 14.58C130.606 13.788 130.522 12.96 130.498 12.096L127.294 12.348L127.006 18L125.026 18.288L124.378 6.48Z" fill="#5862EE"/>
</svg>
