<svg width="158" height="29" viewBox="0 0 158 29" fill="none" xmlns="http://www.w3.org/2000/svg">
<path d="M13.86 3.15C13.748 3.626 13.622 3.99 13.482 4.242C13.342 4.466 13.076 4.774 12.684 5.166C12.516 5.11 12.278 5.068 11.97 5.04C11.662 4.984 11.354 4.942 11.046 4.914C10.682 4.886 10.29 4.858 9.87 4.83C8.778 4.69 7.84 4.844 7.056 5.292C6.272 5.74 5.628 6.356 5.124 7.14C4.564 8.008 4.284 9.044 4.284 10.248C4.284 10.78 4.34 11.298 4.452 11.802C4.564 12.306 4.718 12.726 4.914 13.062C5.11 13.398 5.362 13.748 5.67 14.112C5.978 14.448 6.314 14.742 6.678 14.994C7.07 15.246 7.504 15.414 7.98 15.498C8.456 15.582 8.988 15.54 9.576 15.372C10.024 15.232 10.458 15.022 10.878 14.742C11.242 14.518 11.606 14.21 11.97 13.818C12.362 13.426 12.698 12.922 12.978 12.306L16.086 13.356C16.086 13.748 15.988 14.154 15.792 14.574C15.624 14.966 15.414 15.358 15.162 15.75C14.91 16.114 14.658 16.45 14.406 16.758C14.154 17.066 13.944 17.318 13.776 17.514C13.58 17.766 13.216 18.06 12.684 18.396C12.18 18.704 11.648 18.942 11.088 19.11C10.556 19.278 10.038 19.39 9.534 19.446C9.03 19.474 8.568 19.474 8.148 19.446C7.588 19.39 6.832 19.194 5.88 18.858C4.956 18.522 4.13 17.99 3.402 17.262C2.814 16.674 2.338 16.002 1.974 15.246C1.638 14.49 1.372 13.748 1.176 13.02C0.98 12.264 0.854 11.564 0.798 10.92C0.77 10.276 0.77 9.772 0.798 9.408C0.826 8.484 0.952 7.63 1.176 6.846C1.4 6.062 1.68 5.348 2.016 4.704C2.38 4.032 2.786 3.458 3.234 2.982C3.682 2.478 4.144 2.058 4.62 1.722C5.096 1.442 5.544 1.204 5.964 1.008C6.412 0.812 6.832 0.657999 7.224 0.545999C8.036 0.321999 8.988 0.209999 10.08 0.209999C11.2 0.181999 12.404 0.419999 13.692 0.923999C13.776 1.316 13.832 1.652 13.86 1.932C13.888 2.184 13.902 2.408 13.902 2.604C13.902 2.828 13.888 3.01 13.86 3.15ZM27.9914 4.704C28.3554 5.264 28.7054 5.908 29.0414 6.636C29.4054 7.336 29.7414 8.26 30.0494 9.408C30.3854 10.528 30.7214 11.942 31.0574 13.65C31.3934 15.33 31.7434 17.416 32.1074 19.908L29.6714 21L28.8314 18.27C28.1034 18.858 27.3894 19.292 26.6894 19.572C25.9894 19.824 25.3314 19.992 24.7154 20.076C24.0994 20.132 23.5534 20.146 23.0774 20.118C22.6014 20.062 22.2514 20.006 22.0274 19.95C21.7194 19.894 21.3134 19.684 20.8094 19.32C20.3334 18.928 19.9414 18.466 19.6334 17.934C19.3534 17.402 19.1854 16.814 19.1294 16.17C19.0734 15.526 19.1714 14.868 19.4234 14.196C19.7314 13.692 20.0674 13.216 20.4314 12.768C20.7954 12.32 21.2294 11.928 21.7334 11.592C22.2654 11.228 22.8814 10.92 23.5814 10.668C24.3094 10.388 25.1774 10.178 26.1854 10.038C26.0454 9.254 25.8914 8.708 25.7234 8.4C25.5834 8.092 25.4714 7.882 25.3874 7.77C25.3034 7.63 25.0654 7.448 24.6734 7.224C24.2814 6.972 23.7214 6.944 22.9934 7.14C22.6574 7.224 22.2374 7.406 21.7334 7.686C21.2294 7.966 20.7394 8.26 20.2634 8.568C19.8154 8.876 19.4094 9.156 19.0454 9.408C18.7094 9.66 18.5274 9.8 18.4994 9.828C18.3314 9.772 18.0794 9.618 17.7434 9.366C17.4074 9.086 16.8894 8.638 16.1894 8.022C17.0854 7.042 17.9394 6.258 18.7514 5.67C19.5914 5.054 20.3334 4.578 20.9774 4.242C21.6214 3.906 22.1534 3.682 22.5734 3.57C22.9934 3.43 23.2314 3.346 23.2874 3.318C23.4554 3.29 23.7074 3.276 24.0434 3.276C24.4074 3.248 24.7994 3.276 25.2194 3.36C25.6674 3.444 26.1294 3.584 26.6054 3.78C27.0814 3.976 27.5434 4.284 27.9914 4.704ZM24.5474 17.64C24.8554 17.668 25.1914 17.626 25.5554 17.514C25.8634 17.43 26.2274 17.304 26.6474 17.136C27.0954 16.968 27.5854 16.688 28.1174 16.296C27.9494 15.484 27.7954 14.882 27.6554 14.49C27.5154 14.07 27.3614 13.79 27.1934 13.65C27.0534 13.51 26.8714 13.482 26.6474 13.566C26.4514 13.622 26.1854 13.706 25.8494 13.818C25.4294 13.958 25.1074 14.084 24.8834 14.196C24.7714 14.252 24.6174 14.336 24.4214 14.448C24.2534 14.532 24.0854 14.672 23.9174 14.868C23.7494 15.036 23.6094 15.246 23.4974 15.498C23.3854 15.722 23.3294 15.974 23.3294 16.254C23.3294 16.562 23.4134 16.856 23.5814 17.136C23.7494 17.416 24.0714 17.584 24.5474 17.64ZM37.5135 4.41C37.9895 4.354 38.4235 4.396 38.8155 4.536C39.0115 4.62 39.2075 4.704 39.4035 4.788C39.4875 4.844 39.6135 5.012 39.7815 5.292C39.9775 5.572 40.1735 5.922 40.3695 6.342C40.5655 6.762 40.7615 7.21 40.9575 7.686C41.1535 8.134 41.3355 8.554 41.5035 8.946C41.6155 9.254 41.7415 9.562 41.8815 9.87C42.0215 10.15 42.1755 10.472 42.3435 10.836C42.5115 11.2 42.7075 11.578 42.9315 11.97C42.9035 11.942 42.9595 11.83 43.0995 11.634C43.2675 11.438 43.4355 11.228 43.6035 11.004C43.7715 10.78 43.9255 10.584 44.0655 10.416C44.2335 10.22 44.3035 10.136 44.2755 10.164C44.0515 10.444 44.0375 10.416 44.2335 10.08C44.4575 9.744 44.7795 9.31 45.1995 8.778C45.6195 8.218 46.0675 7.672 46.5435 7.14C47.0195 6.608 47.4115 6.286 47.7195 6.174C47.9435 6.118 48.1955 6.062 48.4755 6.006C48.6995 5.95 48.9655 5.922 49.2735 5.922C49.5815 5.894 49.9175 5.908 50.2815 5.964L50.5755 20.916C50.3515 21.196 50.0575 21.378 49.6935 21.462C49.3575 21.546 49.0075 21.588 48.6435 21.588C48.2235 21.588 47.7755 21.56 47.2995 21.504C47.2715 21.336 47.2295 20.986 47.1735 20.454C47.1455 19.894 47.1035 19.25 47.0475 18.522C46.9915 17.794 46.9215 17.038 46.8375 16.254C46.7815 15.442 46.7115 14.7 46.6275 14.028C46.5715 13.356 46.5155 12.81 46.4595 12.39C46.4315 11.942 46.4035 11.732 46.3755 11.76C46.1515 12.096 45.8295 12.6 45.4095 13.272C44.9895 13.916 44.5555 14.574 44.1075 15.246C43.6875 15.918 43.2955 16.506 42.9315 17.01C42.5675 17.486 42.3435 17.696 42.2595 17.64C42.1755 17.584 42.0495 17.374 41.8815 17.01C41.7135 16.646 41.5315 16.24 41.3355 15.792C41.1675 15.344 40.9995 14.91 40.8315 14.49C40.6915 14.042 40.5795 13.72 40.4955 13.524C40.2715 12.964 40.0615 12.418 39.8655 11.886C39.6975 11.326 39.5575 11.06 39.4455 11.088C39.4175 11.088 39.3475 11.2 39.2355 11.424C39.1515 11.648 39.0535 11.914 38.9415 12.222C38.8575 12.502 38.7595 12.796 38.6475 13.104C38.5355 13.384 38.4655 13.594 38.4375 13.734C38.4095 13.818 38.3255 14.084 38.1855 14.532C38.0735 14.952 37.9195 15.456 37.7235 16.044C37.5555 16.632 37.3735 17.262 37.1775 17.934C36.9815 18.578 36.7855 19.18 36.5895 19.74C36.4215 20.3 36.2535 20.762 36.0855 21.126C35.9455 21.49 35.8475 21.672 35.7915 21.672C35.6795 21.672 35.5535 21.63 35.4135 21.546C35.2735 21.49 35.0915 21.406 34.8675 21.294C34.6435 21.21 34.3635 21.056 34.0275 20.832L37.5135 4.41ZM63.4718 9.744C63.8078 10.304 64.0878 11.06 64.3118 12.012C64.5358 12.964 64.5918 13.944 64.4798 14.952C64.3958 15.932 64.0738 16.87 63.5138 17.766C62.9538 18.662 62.0718 19.334 60.8678 19.782C59.6638 20.23 58.5578 20.314 57.5498 20.034C56.5698 19.726 55.7158 19.222 54.9878 18.522C54.2598 17.822 53.6858 17.01 53.2658 16.086C52.8738 15.162 52.6778 14.294 52.6778 13.482C52.6498 12.026 52.8738 10.878 53.3498 10.038C53.8258 9.17 54.3718 8.512 54.9878 8.064C55.6038 7.616 56.2058 7.322 56.7938 7.182C57.3818 7.042 57.7878 6.958 58.0118 6.93C58.4318 6.874 58.8798 6.888 59.3558 6.972C59.8598 7.056 60.3638 7.21 60.8678 7.434C61.3718 7.658 61.8478 7.966 62.2958 8.358C62.7438 8.75 63.1358 9.212 63.4718 9.744ZM59.1878 16.38C59.3278 16.352 59.5238 16.254 59.7758 16.086C60.0278 15.89 60.2518 15.624 60.4478 15.288C60.6718 14.924 60.8258 14.49 60.9098 13.986C61.0218 13.482 61.0078 12.894 60.8678 12.222C60.7558 11.55 60.5318 11.032 60.1958 10.668C59.8598 10.304 59.5098 10.038 59.1458 9.87C58.7818 9.674 58.4458 9.562 58.1378 9.534C57.8298 9.506 57.6338 9.492 57.5498 9.492C57.2138 9.52 56.8778 9.66 56.5418 9.912C56.2058 10.08 55.9818 10.36 55.8698 10.752C55.7578 11.116 55.6878 11.508 55.6598 11.928C55.6598 12.32 55.6878 12.67 55.7438 12.978C55.7998 13.286 55.8558 13.622 55.9118 13.986C55.9958 14.35 56.1918 14.742 56.4998 15.162C56.8078 15.554 57.1298 15.848 57.4658 16.044C57.8298 16.24 58.1658 16.352 58.4738 16.38C58.7818 16.408 59.0198 16.408 59.1878 16.38ZM79.2232 4.872C79.3632 5.012 79.4472 5.236 79.4752 5.544C79.5032 5.824 79.4612 6.258 79.3492 6.846C78.8172 9.562 78.3972 11.718 78.0892 13.314C77.8092 14.91 77.5992 16.128 77.4592 16.968C77.3752 17.388 77.3052 17.724 77.2492 17.976C77.2212 18.228 77.1932 18.438 77.1652 18.606C77.1652 18.746 77.1512 18.872 77.1232 18.984C77.0952 19.068 77.0672 19.166 77.0392 19.278C77.0112 19.502 76.9272 19.936 76.7872 20.58C76.6472 21.224 76.4652 21.868 76.2412 22.512C76.0452 23.184 75.8072 23.828 75.5272 24.444C75.2472 25.06 74.9252 25.578 74.5612 25.998C73.8332 26.838 73.0492 27.44 72.2092 27.804C71.3692 28.168 70.6272 28.35 69.9832 28.35C69.3392 28.322 68.8212 28.28 68.4292 28.224C68.0372 28.196 67.5612 28.098 67.0012 27.93C66.0212 27.51 65.0832 27.048 64.1872 26.544C63.2912 26.04 62.4512 25.48 61.6672 24.864L64.7332 20.958C65.7692 22.022 66.7772 22.764 67.7572 23.184C68.7372 23.604 69.4372 23.828 69.8572 23.856C70.0812 23.94 70.3612 23.982 70.6972 23.982C71.0332 23.982 71.3552 23.94 71.6632 23.856C71.9992 23.772 72.3072 23.66 72.5872 23.52C72.8952 23.38 73.1192 23.198 73.2592 22.974C73.4832 22.694 73.6932 22.344 73.8892 21.924C74.0572 21.56 74.2252 21.112 74.3932 20.58C74.5612 20.02 74.6872 19.348 74.7712 18.564C74.2952 18.676 73.8332 18.732 73.3852 18.732C72.9652 18.732 72.5872 18.704 72.2512 18.648C71.9152 18.592 71.6352 18.536 71.4112 18.48C71.2152 18.396 71.1172 18.354 71.1172 18.354C70.5572 18.158 70.0672 17.864 69.6472 17.472C69.2272 17.052 68.8912 16.59 68.6392 16.086C68.4152 15.554 68.2752 15.008 68.2192 14.448C68.1632 13.86 68.2192 13.286 68.3872 12.726C68.5552 12.138 68.8212 11.634 69.1852 11.214C69.5492 10.766 69.9552 10.388 70.4032 10.08C70.8792 9.772 71.3552 9.534 71.8312 9.366C72.3352 9.198 72.7832 9.086 73.1752 9.03C73.2032 9.03 73.3572 9.016 73.6372 8.988C73.9172 8.932 74.3092 8.904 74.8132 8.904C75.0652 8.904 75.3172 8.918 75.5692 8.946C75.8212 8.946 76.0872 8.96 76.3672 8.988L77.2072 5.292C77.5712 5.152 77.8792 5.054 78.1312 4.998C78.3832 4.914 78.5932 4.858 78.7612 4.83C78.9572 4.802 79.1112 4.816 79.2232 4.872ZM75.2332 15.036C75.3732 14.784 75.4712 14.42 75.5272 13.944C75.5832 13.44 75.6392 13.062 75.6952 12.81C75.7232 12.698 75.6252 12.586 75.4012 12.474C75.1772 12.334 74.8972 12.25 74.5612 12.222C74.2252 12.194 73.8752 12.25 73.5112 12.39C73.1472 12.53 72.8392 12.81 72.5872 13.23C72.1952 13.902 72.1252 14.462 72.3772 14.91C72.6292 15.33 72.8952 15.568 73.1752 15.624C73.6512 15.764 74.0712 15.764 74.4352 15.624C74.8272 15.456 75.0932 15.26 75.2332 15.036ZM92.5969 11.634C92.6809 12.334 92.6249 12.866 92.4289 13.23C92.2329 13.566 92.0649 13.818 91.9249 13.986C91.7849 14.154 91.4069 14.336 90.7909 14.532C90.1749 14.728 89.4609 14.812 88.6489 14.784C88.6489 14.784 88.5369 14.77 88.3129 14.742C88.0889 14.714 87.8089 14.658 87.4729 14.574C87.1649 14.49 86.8149 14.364 86.4229 14.196C86.0309 14 85.6529 13.748 85.2889 13.44C85.1489 13.664 85.1069 13.944 85.1629 14.28C85.2469 14.616 85.3169 14.896 85.3729 15.12C85.4289 15.316 85.6109 15.526 85.9189 15.75C86.2269 15.946 86.6049 16.114 87.0529 16.254C87.4169 16.338 87.7949 16.38 88.1869 16.38C88.5229 16.38 88.8869 16.324 89.2789 16.212C89.6989 16.1 90.1049 15.876 90.4969 15.54L91.7149 17.85C91.5749 17.962 91.3089 18.158 90.9169 18.438C90.5529 18.69 90.1749 18.872 89.7829 18.984C89.3069 19.124 88.7329 19.222 88.0609 19.278C87.4169 19.334 86.7589 19.292 86.0869 19.152C85.7509 19.096 85.3589 18.97 84.9109 18.774C84.4909 18.55 84.0709 18.256 83.6509 17.892C83.2589 17.5 82.8949 17.038 82.5589 16.506C82.2509 15.946 82.0409 15.302 81.9289 14.574C81.8169 13.846 81.8169 13.104 81.9289 12.348C82.0409 11.592 82.2649 10.892 82.6009 10.248C82.9369 9.576 83.3849 8.988 83.9449 8.484C84.5049 7.952 85.1629 7.56 85.9189 7.308C86.7309 7 87.5709 6.93 88.4389 7.098C89.3069 7.238 90.0909 7.588 90.7909 8.148C91.2389 8.512 91.6309 9.002 91.9669 9.618C92.3309 10.234 92.5409 10.906 92.5969 11.634ZM89.6149 12.222C89.7829 11.914 89.8249 11.606 89.7409 11.298C89.6569 10.962 89.5169 10.682 89.3209 10.458C89.0409 10.15 88.7189 9.954 88.3549 9.87C87.9909 9.786 87.6829 9.758 87.4309 9.786C87.1789 9.842 86.9269 9.954 86.6749 10.122C86.4229 10.262 86.2549 10.402 86.1709 10.542C85.9749 10.878 85.9329 11.228 86.0449 11.592C86.1569 11.928 86.5209 12.194 87.1369 12.39C87.6689 12.558 88.1589 12.656 88.6069 12.684C89.0549 12.684 89.3909 12.53 89.6149 12.222ZM109.962 20.706C109.794 20.93 109.626 21.112 109.458 21.252C109.29 21.392 109.094 21.49 108.87 21.546C108.674 21.63 108.436 21.63 108.156 21.546C107.764 21.434 107.456 21.294 107.232 21.126C107.036 20.958 106.868 20.776 106.728 20.58C106.588 20.384 106.49 20.16 106.434 19.908L106.14 8.274L104.796 8.022L104.586 9.45C104.278 11.13 103.872 12.726 103.368 14.238C102.892 15.75 102.234 17.08 101.394 18.228C100.582 19.376 99.5739 20.3 98.3699 21C97.1659 21.672 95.7099 22.05 94.0019 22.134L94.1699 17.934C95.7099 17.766 96.9699 17.262 97.9499 16.422C98.9299 15.582 99.7139 14.602 100.302 13.482C100.89 12.334 101.324 11.144 101.604 9.912C101.912 8.68 102.15 7.588 102.318 6.636L102.528 5.376L109.542 5.544L109.962 20.706ZM112.543 6.552C113.607 6.048 114.307 5.754 114.643 5.67C115.007 5.558 115.259 5.502 115.399 5.502C115.651 5.474 115.889 5.628 116.113 5.964C116.225 6.272 116.323 6.762 116.407 7.434C116.519 8.078 116.631 9.072 116.743 10.416L120.565 5.628L122.581 7.14L119.305 12.432L125.731 17.262L123.043 19.404L118.591 16.086L117.415 15.372L117.289 20.076C116.841 20.384 116.435 20.58 116.071 20.664C115.735 20.748 115.371 20.636 114.979 20.328C114.587 18.088 114.251 16.198 113.971 14.658C113.691 13.09 113.453 11.802 113.257 10.794C113.089 9.758 112.949 8.96 112.837 8.4C112.753 7.84 112.683 7.42 112.627 7.14C112.571 6.86 112.543 6.692 112.543 6.636C112.543 6.58 112.543 6.552 112.543 6.552ZM131.03 8.568C131.03 9.1 131.044 9.436 131.072 9.576C131.128 9.8 131.156 9.94 131.156 9.996C131.184 10.052 131.212 10.318 131.24 10.794C131.268 11.13 131.31 11.508 131.366 11.928C131.45 12.348 131.562 12.768 131.702 13.188C131.87 13.608 132.08 13.986 132.332 14.322C132.612 14.658 132.962 14.91 133.382 15.078C133.998 15.302 134.474 15.316 134.81 15.12C135.146 14.924 135.384 14.742 135.524 14.574C135.86 14.182 136.014 13.762 135.986 13.314C135.958 12.838 135.916 12.418 135.86 12.054C135.776 11.494 135.664 10.878 135.524 10.206C135.384 9.506 135.216 8.75 135.02 7.938L138.296 7.728C138.604 9.352 138.884 10.612 139.136 11.508C139.416 12.376 139.612 12.95 139.724 13.23C139.948 13.622 140.326 14.238 140.858 15.078C141.39 15.89 142.16 16.8 143.168 17.808C142.944 18.172 142.65 18.452 142.286 18.648C141.95 18.872 141.726 19.026 141.614 19.11C141.502 19.166 141.292 19.25 140.984 19.362C140.508 19.502 140.06 19.586 139.64 19.614C139.248 19.614 138.982 19.53 138.842 19.362C138.674 19.082 138.422 18.718 138.086 18.27C137.778 17.794 137.344 17.15 136.784 16.338C136.476 16.898 136.126 17.36 135.734 17.724C135.342 18.06 134.95 18.34 134.558 18.564C134.166 18.76 133.788 18.9 133.424 18.984C133.088 19.068 132.808 19.11 132.584 19.11C132.416 19.11 132.248 19.11 132.08 19.11C131.912 19.11 131.73 19.096 131.534 19.068C131.17 19.04 130.652 18.802 129.98 18.354C129.308 17.878 128.734 17.248 128.258 16.464C128.034 16.016 127.838 15.54 127.67 15.036C127.502 14.504 127.362 13.916 127.25 13.272C127.138 12.628 127.054 11.9 126.998 11.088C126.942 10.276 126.942 9.338 126.998 8.274L131.03 8.568ZM144.73 7.56C145.57 7.616 146.228 7.686 146.704 7.77C147.18 7.854 147.53 7.938 147.754 8.022C148.034 8.134 148.202 8.232 148.258 8.316C148.286 8.288 148.3 8.4 148.3 8.652C148.3 8.876 148.3 9.226 148.3 9.702C148.3 10.178 148.286 10.864 148.258 11.76L151.912 11.844L152.29 7.938C152.766 7.602 153.354 7.448 154.054 7.476C154.782 7.476 155.384 7.574 155.86 7.77C155.748 8.526 155.65 9.282 155.566 10.038C155.51 10.682 155.454 11.382 155.398 12.138C155.342 12.894 155.328 13.594 155.356 14.238C155.412 15.218 155.552 16.086 155.776 16.842C156 17.57 156.266 18.186 156.574 18.69C156.882 19.278 157.26 19.782 157.708 20.202C157.484 20.594 157.106 20.874 156.574 21.042C156.07 21.21 155.65 21.252 155.314 21.168C154.978 21.084 154.572 20.888 154.096 20.58C153.648 20.272 153.27 19.838 152.962 19.278C152.626 18.662 152.36 17.906 152.164 17.01C151.996 16.086 151.898 15.12 151.87 14.112L148.132 14.406L147.796 21L145.486 21.336L144.73 7.56Z" fill="#5862EE"/>
</svg>
