<svg width="181" height="58" viewBox="0 0 181 58" fill="none" xmlns="http://www.w3.org/2000/svg">
<path d="M15.84 20.6C15.712 21.144 15.568 21.56 15.408 21.848C15.248 22.104 14.944 22.456 14.496 22.904C14.304 22.84 14.032 22.792 13.68 22.76C13.328 22.696 12.976 22.648 12.624 22.616C12.208 22.584 11.76 22.552 11.28 22.52C10.032 22.36 8.96 22.536 8.064 23.048C7.168 23.56 6.432 24.264 5.856 25.16C5.216 26.152 4.896 27.336 4.896 28.712C4.896 29.32 4.96 29.912 5.088 30.488C5.216 31.064 5.392 31.544 5.616 31.928C5.84 32.312 6.128 32.712 6.48 33.128C6.832 33.512 7.216 33.848 7.632 34.136C8.08 34.424 8.576 34.616 9.12 34.712C9.664 34.808 10.272 34.76 10.944 34.568C11.456 34.408 11.952 34.168 12.432 33.848C12.848 33.592 13.264 33.24 13.68 32.792C14.128 32.344 14.512 31.768 14.832 31.064L18.384 32.264C18.384 32.712 18.272 33.176 18.048 33.656C17.856 34.104 17.616 34.552 17.328 35C17.04 35.416 16.752 35.8 16.464 36.152C16.176 36.504 15.936 36.792 15.744 37.016C15.52 37.304 15.104 37.64 14.496 38.024C13.92 38.376 13.312 38.648 12.672 38.84C12.064 39.032 11.472 39.16 10.896 39.224C10.32 39.256 9.792 39.256 9.312 39.224C8.672 39.16 7.808 38.936 6.72 38.552C5.664 38.168 4.72 37.56 3.888 36.728C3.216 36.056 2.672 35.288 2.256 34.424C1.872 33.56 1.568 32.712 1.344 31.88C1.12 31.016 0.976 30.216 0.912 29.48C0.88 28.744 0.88 28.168 0.912 27.752C0.944 26.696 1.088 25.72 1.344 24.824C1.6 23.928 1.92 23.112 2.304 22.376C2.72 21.608 3.184 20.952 3.696 20.408C4.208 19.832 4.736 19.352 5.28 18.968C5.824 18.648 6.336 18.376 6.816 18.152C7.328 17.928 7.808 17.752 8.256 17.624C9.184 17.368 10.272 17.24 11.52 17.24C12.8 17.208 14.176 17.48 15.648 18.056C15.744 18.504 15.808 18.888 15.84 19.208C15.872 19.496 15.888 19.752 15.888 19.976C15.888 20.232 15.872 20.44 15.84 20.6ZM31.9901 22.376C32.4061 23.016 32.8061 23.752 33.1901 24.584C33.6061 25.384 33.9901 26.44 34.3421 27.752C34.7261 29.032 35.1101 30.648 35.4941 32.6C35.8781 34.52 36.2781 36.904 36.6941 39.752L33.9101 41L32.9501 37.88C32.1181 38.552 31.3021 39.048 30.5021 39.368C29.7021 39.656 28.9501 39.848 28.2461 39.944C27.5421 40.008 26.9181 40.024 26.3741 39.992C25.8301 39.928 25.4301 39.864 25.1741 39.8C24.8221 39.736 24.3581 39.496 23.7821 39.08C23.2381 38.632 22.7901 38.104 22.4381 37.496C22.1181 36.888 21.9261 36.216 21.8621 35.48C21.7981 34.744 21.9101 33.992 22.1981 33.224C22.5501 32.648 22.9341 32.104 23.3501 31.592C23.7661 31.08 24.2621 30.632 24.8381 30.248C25.4461 29.832 26.1501 29.48 26.9501 29.192C27.7821 28.872 28.7741 28.632 29.9261 28.472C29.7661 27.576 29.5901 26.952 29.3981 26.6C29.2381 26.248 29.1101 26.008 29.0141 25.88C28.9181 25.72 28.6461 25.512 28.1981 25.256C27.7501 24.968 27.1101 24.936 26.2781 25.16C25.8941 25.256 25.4141 25.464 24.8381 25.784C24.2621 26.104 23.7021 26.44 23.1581 26.792C22.6461 27.144 22.1821 27.464 21.7661 27.752C21.3821 28.04 21.1741 28.2 21.1421 28.232C20.9501 28.168 20.6621 27.992 20.2781 27.704C19.8941 27.384 19.3021 26.872 18.5021 26.168C19.5261 25.048 20.5021 24.152 21.4301 23.48C22.3901 22.776 23.2381 22.232 23.9741 21.848C24.7101 21.464 25.3181 21.208 25.7981 21.08C26.2781 20.92 26.5501 20.824 26.6141 20.792C26.8061 20.76 27.0941 20.744 27.4781 20.744C27.8941 20.712 28.3421 20.744 28.8221 20.84C29.3341 20.936 29.8621 21.096 30.4061 21.32C30.9501 21.544 31.4781 21.896 31.9901 22.376ZM28.0541 37.16C28.4061 37.192 28.7901 37.144 29.2061 37.016C29.5581 36.92 29.9741 36.776 30.4541 36.584C30.9661 36.392 31.5261 36.072 32.1341 35.624C31.9421 34.696 31.7661 34.008 31.6061 33.56C31.4461 33.08 31.2701 32.76 31.0781 32.6C30.9181 32.44 30.7101 32.408 30.4541 32.504C30.2301 32.568 29.9261 32.664 29.5421 32.792C29.0621 32.952 28.6941 33.096 28.4381 33.224C28.3101 33.288 28.1341 33.384 27.9101 33.512C27.7181 33.608 27.5261 33.768 27.3341 33.992C27.1421 34.184 26.9821 34.424 26.8541 34.712C26.7261 34.968 26.6621 35.256 26.6621 35.576C26.6621 35.928 26.7581 36.264 26.9501 36.584C27.1421 36.904 27.5101 37.096 28.0541 37.16ZM42.8726 22.04C43.4166 21.976 43.9126 22.024 44.3606 22.184C44.5846 22.28 44.8086 22.376 45.0326 22.472C45.1286 22.536 45.2726 22.728 45.4646 23.048C45.6886 23.368 45.9126 23.768 46.1366 24.248C46.3606 24.728 46.5846 25.24 46.8086 25.784C47.0326 26.296 47.2406 26.776 47.4326 27.224C47.5606 27.576 47.7046 27.928 47.8646 28.28C48.0246 28.6 48.2006 28.968 48.3926 29.384C48.5846 29.8 48.8086 30.232 49.0646 30.68C49.0326 30.648 49.0966 30.52 49.2566 30.296C49.4486 30.072 49.6406 29.832 49.8326 29.576C50.0246 29.32 50.2006 29.096 50.3606 28.904C50.5526 28.68 50.6326 28.584 50.6006 28.616C50.3446 28.936 50.3286 28.904 50.5526 28.52C50.8086 28.136 51.1766 27.64 51.6566 27.032C52.1366 26.392 52.6486 25.768 53.1926 25.16C53.7366 24.552 54.1846 24.184 54.5366 24.056C54.7926 23.992 55.0806 23.928 55.4006 23.864C55.6566 23.8 55.9606 23.768 56.3126 23.768C56.6646 23.736 57.0486 23.752 57.4646 23.816L57.8006 40.904C57.5446 41.224 57.2086 41.432 56.7926 41.528C56.4086 41.624 56.0086 41.672 55.5926 41.672C55.1126 41.672 54.6006 41.64 54.0566 41.576C54.0246 41.384 53.9766 40.984 53.9126 40.376C53.8806 39.736 53.8326 39 53.7686 38.168C53.7046 37.336 53.6246 36.472 53.5286 35.576C53.4646 34.648 53.3846 33.8 53.2886 33.032C53.2246 32.264 53.1606 31.64 53.0966 31.16C53.0646 30.648 53.0326 30.408 53.0006 30.44C52.7446 30.824 52.3766 31.4 51.8966 32.168C51.4166 32.904 50.9206 33.656 50.4086 34.424C49.9286 35.192 49.4806 35.864 49.0646 36.44C48.6486 36.984 48.3926 37.224 48.2966 37.16C48.2006 37.096 48.0566 36.856 47.8646 36.44C47.6726 36.024 47.4646 35.56 47.2406 35.048C47.0486 34.536 46.8566 34.04 46.6646 33.56C46.5046 33.048 46.3766 32.68 46.2806 32.456C46.0246 31.816 45.7846 31.192 45.5606 30.584C45.3686 29.944 45.2086 29.64 45.0806 29.672C45.0486 29.672 44.9686 29.8 44.8406 30.056C44.7446 30.312 44.6326 30.616 44.5046 30.968C44.4086 31.288 44.2966 31.624 44.1686 31.976C44.0406 32.296 43.9606 32.536 43.9286 32.696C43.8966 32.792 43.8006 33.096 43.6406 33.608C43.5126 34.088 43.3366 34.664 43.1126 35.336C42.9206 36.008 42.7126 36.728 42.4886 37.496C42.2646 38.232 42.0406 38.92 41.8166 39.56C41.6246 40.2 41.4326 40.728 41.2406 41.144C41.0806 41.56 40.9686 41.768 40.9046 41.768C40.7766 41.768 40.6326 41.72 40.4726 41.624C40.3126 41.56 40.1046 41.464 39.8486 41.336C39.5926 41.24 39.2726 41.064 38.8886 40.808L42.8726 22.04ZM72.5393 28.136C72.9233 28.776 73.2433 29.64 73.4993 30.728C73.7553 31.816 73.8193 32.936 73.6913 34.088C73.5953 35.208 73.2273 36.28 72.5873 37.304C71.9473 38.328 70.9393 39.096 69.5633 39.608C68.1873 40.12 66.9233 40.216 65.7713 39.896C64.6513 39.544 63.6753 38.968 62.8433 38.168C62.0113 37.368 61.3553 36.44 60.8753 35.384C60.4273 34.328 60.2033 33.336 60.2033 32.408C60.1713 30.744 60.4273 29.432 60.9713 28.472C61.5153 27.48 62.1393 26.728 62.8433 26.216C63.5473 25.704 64.2353 25.368 64.9073 25.208C65.5793 25.048 66.0433 24.952 66.2993 24.92C66.7793 24.856 67.2913 24.872 67.8353 24.968C68.4113 25.064 68.9873 25.24 69.5633 25.496C70.1393 25.752 70.6833 26.104 71.1953 26.552C71.7073 27 72.1553 27.528 72.5393 28.136ZM67.6433 35.72C67.8033 35.688 68.0273 35.576 68.3153 35.384C68.6033 35.16 68.8593 34.856 69.0833 34.472C69.3393 34.056 69.5153 33.56 69.6113 32.984C69.7393 32.408 69.7233 31.736 69.5633 30.968C69.4353 30.2 69.1793 29.608 68.7953 29.192C68.4113 28.776 68.0113 28.472 67.5953 28.28C67.1793 28.056 66.7953 27.928 66.4433 27.896C66.0913 27.864 65.8673 27.848 65.7713 27.848C65.3873 27.88 65.0033 28.04 64.6193 28.328C64.2353 28.52 63.9793 28.84 63.8513 29.288C63.7233 29.704 63.6433 30.152 63.6113 30.632C63.6113 31.08 63.6433 31.48 63.7073 31.832C63.7713 32.184 63.8353 32.568 63.8993 32.984C63.9953 33.4 64.2193 33.848 64.5713 34.328C64.9233 34.776 65.2913 35.112 65.6753 35.336C66.0913 35.56 66.4753 35.688 66.8273 35.72C67.1793 35.752 67.4513 35.752 67.6433 35.72ZM90.5408 22.568C90.7008 22.728 90.7968 22.984 90.8288 23.336C90.8608 23.656 90.8128 24.152 90.6848 24.824C90.0768 27.928 89.5968 30.392 89.2448 32.216C88.9248 34.04 88.6848 35.432 88.5248 36.392C88.4288 36.872 88.3488 37.256 88.2848 37.544C88.2528 37.832 88.2208 38.072 88.1888 38.264C88.1888 38.424 88.1728 38.568 88.1407 38.696C88.1088 38.792 88.0768 38.904 88.0448 39.032C88.0128 39.288 87.9168 39.784 87.7568 40.52C87.5968 41.256 87.3888 41.992 87.1328 42.728C86.9088 43.496 86.6368 44.232 86.3168 44.936C85.9968 45.64 85.6288 46.232 85.2128 46.712C84.3808 47.672 83.4848 48.36 82.5247 48.776C81.5648 49.192 80.7168 49.4 79.9808 49.4C79.2448 49.368 78.6528 49.32 78.2048 49.256C77.7568 49.224 77.2128 49.112 76.5728 48.92C75.4528 48.44 74.3807 47.912 73.3567 47.336C72.3327 46.76 71.3727 46.12 70.4767 45.416L73.9807 40.952C75.1647 42.168 76.3168 43.016 77.4368 43.496C78.5568 43.976 79.3568 44.232 79.8368 44.264C80.0928 44.36 80.4128 44.408 80.7968 44.408C81.1808 44.408 81.5488 44.36 81.9008 44.264C82.2848 44.168 82.6368 44.04 82.9568 43.88C83.3088 43.72 83.5648 43.512 83.7248 43.256C83.9808 42.936 84.2208 42.536 84.4448 42.056C84.6368 41.64 84.8288 41.128 85.0208 40.52C85.2128 39.88 85.3568 39.112 85.4528 38.216C84.9088 38.344 84.3808 38.408 83.8688 38.408C83.3888 38.408 82.9568 38.376 82.5728 38.312C82.1888 38.248 81.8688 38.184 81.6128 38.12C81.3888 38.024 81.2768 37.976 81.2768 37.976C80.6368 37.752 80.0768 37.416 79.5968 36.968C79.1168 36.488 78.7328 35.96 78.4448 35.384C78.1888 34.776 78.0288 34.152 77.9648 33.512C77.9008 32.84 77.9648 32.184 78.1568 31.544C78.3488 30.872 78.6528 30.296 79.0688 29.816C79.4848 29.304 79.9488 28.872 80.4608 28.52C81.0048 28.168 81.5488 27.896 82.0928 27.704C82.6688 27.512 83.1808 27.384 83.6288 27.32C83.6608 27.32 83.8368 27.304 84.1568 27.272C84.4768 27.208 84.9248 27.176 85.5008 27.176C85.7888 27.176 86.0768 27.192 86.3648 27.224C86.6528 27.224 86.9568 27.24 87.2768 27.272L88.2368 23.048C88.6528 22.888 89.0048 22.776 89.2928 22.712C89.5808 22.616 89.8208 22.552 90.0128 22.52C90.2368 22.488 90.4128 22.504 90.5408 22.568ZM85.9808 34.184C86.1408 33.896 86.2528 33.48 86.3168 32.936C86.3808 32.36 86.4448 31.928 86.5088 31.64C86.5408 31.512 86.4288 31.384 86.1728 31.256C85.9168 31.096 85.5968 31 85.2128 30.968C84.8288 30.936 84.4288 31 84.0128 31.16C83.5968 31.32 83.2448 31.64 82.9568 32.12C82.5088 32.888 82.4288 33.528 82.7168 34.04C83.0048 34.52 83.3088 34.792 83.6288 34.856C84.1728 35.016 84.6528 35.016 85.0688 34.856C85.5168 34.664 85.8208 34.44 85.9808 34.184ZM105.825 30.296C105.921 31.096 105.857 31.704 105.633 32.12C105.409 32.504 105.217 32.792 105.057 32.984C104.897 33.176 104.465 33.384 103.761 33.608C103.057 33.832 102.241 33.928 101.313 33.896C101.313 33.896 101.185 33.88 100.929 33.848C100.673 33.816 100.353 33.752 99.969 33.656C99.617 33.56 99.217 33.416 98.769 33.224C98.321 33 97.889 32.712 97.473 32.36C97.313 32.616 97.265 32.936 97.329 33.32C97.425 33.704 97.505 34.024 97.569 34.28C97.633 34.504 97.841 34.744 98.193 35C98.545 35.224 98.977 35.416 99.489 35.576C99.905 35.672 100.337 35.72 100.785 35.72C101.169 35.72 101.585 35.656 102.033 35.528C102.513 35.4 102.977 35.144 103.425 34.76L104.817 37.4C104.657 37.528 104.353 37.752 103.905 38.072C103.489 38.36 103.057 38.568 102.609 38.696C102.065 38.856 101.409 38.968 100.641 39.032C99.905 39.096 99.153 39.048 98.385 38.888C98.001 38.824 97.553 38.68 97.041 38.456C96.561 38.2 96.081 37.864 95.601 37.448C95.153 37 94.737 36.472 94.353 35.864C94.001 35.224 93.761 34.488 93.633 33.656C93.505 32.824 93.505 31.976 93.633 31.112C93.761 30.248 94.017 29.448 94.401 28.712C94.785 27.944 95.297 27.272 95.937 26.696C96.577 26.088 97.329 25.64 98.193 25.352C99.121 25 100.081 24.92 101.073 25.112C102.065 25.272 102.961 25.672 103.761 26.312C104.273 26.728 104.721 27.288 105.105 27.992C105.521 28.696 105.761 29.464 105.825 30.296ZM102.417 30.968C102.609 30.616 102.657 30.264 102.561 29.912C102.465 29.528 102.305 29.208 102.081 28.952C101.761 28.6 101.393 28.376 100.977 28.28C100.561 28.184 100.209 28.152 99.921 28.184C99.633 28.248 99.345 28.376 99.057 28.568C98.769 28.728 98.577 28.888 98.481 29.048C98.257 29.432 98.209 29.832 98.337 30.248C98.465 30.632 98.881 30.936 99.585 31.16C100.193 31.352 100.753 31.464 101.265 31.496C101.777 31.496 102.161 31.32 102.417 30.968ZM125.671 40.664C125.479 40.92 125.287 41.128 125.095 41.288C124.903 41.448 124.679 41.56 124.423 41.624C124.199 41.72 123.927 41.72 123.607 41.624C123.159 41.496 122.807 41.336 122.551 41.144C122.327 40.952 122.135 40.744 121.975 40.52C121.815 40.296 121.703 40.04 121.639 39.752L121.303 26.456L119.767 26.168L119.527 27.8C119.175 29.72 118.711 31.544 118.135 33.272C117.591 35 116.839 36.52 115.879 37.832C114.951 39.144 113.799 40.2 112.423 41C111.047 41.768 109.383 42.2 107.431 42.296L107.623 37.496C109.383 37.304 110.823 36.728 111.943 35.768C113.063 34.808 113.959 33.688 114.631 32.408C115.303 31.096 115.799 29.736 116.119 28.328C116.471 26.92 116.743 25.672 116.935 24.584L117.175 23.144L125.191 23.336L125.671 40.664ZM128.621 24.488C129.837 23.912 130.637 23.576 131.021 23.48C131.437 23.352 131.725 23.288 131.885 23.288C132.173 23.256 132.445 23.432 132.701 23.816C132.829 24.168 132.941 24.728 133.037 25.496C133.165 26.232 133.293 27.368 133.421 28.904L137.789 23.432L140.093 25.16L136.349 31.208L143.693 36.728L140.621 39.176L135.533 35.384L134.189 34.568L134.045 39.944C133.533 40.296 133.069 40.52 132.653 40.616C132.269 40.712 131.853 40.584 131.405 40.232C130.957 37.672 130.573 35.512 130.253 33.752C129.933 31.96 129.661 30.488 129.437 29.336C129.245 28.152 129.085 27.24 128.957 26.6C128.861 25.96 128.781 25.48 128.717 25.16C128.653 24.84 128.621 24.648 128.621 24.584C128.621 24.52 128.621 24.488 128.621 24.488ZM149.749 26.792C149.749 27.4 149.765 27.784 149.797 27.944C149.861 28.2 149.893 28.36 149.893 28.424C149.925 28.488 149.957 28.792 149.989 29.336C150.021 29.72 150.069 30.152 150.133 30.632C150.229 31.112 150.357 31.592 150.517 32.072C150.709 32.552 150.949 32.984 151.237 33.368C151.557 33.752 151.957 34.04 152.437 34.232C153.141 34.488 153.685 34.504 154.069 34.28C154.453 34.056 154.725 33.848 154.885 33.656C155.269 33.208 155.445 32.728 155.413 32.216C155.381 31.672 155.333 31.192 155.269 30.776C155.173 30.136 155.045 29.432 154.885 28.664C154.725 27.864 154.533 27 154.309 26.072L158.053 25.832C158.405 27.688 158.725 29.128 159.013 30.152C159.333 31.144 159.557 31.8 159.685 32.12C159.941 32.568 160.373 33.272 160.981 34.232C161.589 35.16 162.469 36.2 163.621 37.352C163.365 37.768 163.029 38.088 162.613 38.312C162.229 38.568 161.973 38.744 161.845 38.84C161.717 38.904 161.477 39 161.125 39.128C160.581 39.288 160.069 39.384 159.589 39.416C159.141 39.416 158.837 39.32 158.677 39.128C158.485 38.808 158.197 38.392 157.813 37.88C157.461 37.336 156.965 36.6 156.325 35.672C155.973 36.312 155.573 36.84 155.125 37.256C154.677 37.64 154.229 37.96 153.781 38.216C153.333 38.44 152.901 38.6 152.485 38.696C152.101 38.792 151.781 38.84 151.525 38.84C151.333 38.84 151.141 38.84 150.949 38.84C150.757 38.84 150.549 38.824 150.325 38.792C149.909 38.76 149.317 38.488 148.549 37.976C147.781 37.432 147.125 36.712 146.581 35.816C146.325 35.304 146.101 34.76 145.909 34.184C145.717 33.576 145.557 32.904 145.429 32.168C145.301 31.432 145.205 30.6 145.141 29.672C145.077 28.744 145.077 27.672 145.141 26.456L149.749 26.792ZM165.405 25.64C166.365 25.704 167.117 25.784 167.661 25.88C168.205 25.976 168.605 26.072 168.861 26.168C169.181 26.296 169.373 26.408 169.437 26.504C169.469 26.472 169.485 26.6 169.485 26.888C169.485 27.144 169.485 27.544 169.485 28.088C169.485 28.632 169.469 29.416 169.437 30.44L173.613 30.536L174.045 26.072C174.589 25.688 175.261 25.512 176.061 25.544C176.893 25.544 177.581 25.656 178.125 25.88C177.997 26.744 177.885 27.608 177.789 28.472C177.725 29.208 177.661 30.008 177.597 30.872C177.533 31.736 177.517 32.536 177.549 33.272C177.613 34.392 177.773 35.384 178.029 36.248C178.285 37.08 178.589 37.784 178.941 38.36C179.293 39.032 179.725 39.608 180.237 40.088C179.981 40.536 179.549 40.856 178.941 41.048C178.365 41.24 177.885 41.288 177.501 41.192C177.117 41.096 176.653 40.872 176.109 40.52C175.597 40.168 175.165 39.672 174.813 39.032C174.429 38.328 174.125 37.464 173.901 36.44C173.709 35.384 173.597 34.28 173.565 33.128L169.293 33.464L168.909 41L166.269 41.384L165.405 25.64Z" fill="#5862EE"/>
</svg>
