<svg width="431" height="138" viewBox="0 0 431 138" fill="none" xmlns="http://www.w3.org/2000/svg">
<g clip-path="url(#clip0_516_142)">
<path d="M68.6 48C68.28 49.36 67.92 50.4 67.52 51.12C67.12 51.76 66.36 52.64 65.24 53.76C64.76 53.6 64.08 53.48 63.2 53.4C62.32 53.24 61.44 53.12 60.56 53.04C59.52 52.96 58.4 52.88 57.2 52.8C54.08 52.4 51.4 52.84 49.16 54.12C46.92 55.4 45.08 57.16 43.64 59.4C42.04 61.88 41.24 64.84 41.24 68.28C41.24 69.8 41.4 71.28 41.72 72.72C42.04 74.16 42.48 75.36 43.04 76.32C43.6 77.28 44.32 78.28 45.2 79.32C46.08 80.28 47.04 81.12 48.08 81.84C49.2 82.56 50.44 83.04 51.8 83.28C53.16 83.52 54.68 83.4 56.36 82.92C57.64 82.52 58.88 81.92 60.08 81.12C61.12 80.48 62.16 79.6 63.2 78.48C64.32 77.36 65.28 75.92 66.08 74.16L74.96 77.16C74.96 78.28 74.68 79.44 74.12 80.64C73.64 81.76 73.04 82.88 72.32 84C71.6 85.04 70.88 86 70.16 86.88C69.44 87.76 68.84 88.48 68.36 89.04C67.8 89.76 66.76 90.6 65.24 91.56C63.8 92.44 62.28 93.12 60.68 93.6C59.16 94.08 57.68 94.4 56.24 94.56C54.8 94.64 53.48 94.64 52.28 94.56C50.68 94.4 48.52 93.84 45.8 92.88C43.16 91.92 40.8 90.4 38.72 88.32C37.04 86.64 35.68 84.72 34.64 82.56C33.68 80.4 32.92 78.28 32.36 76.2C31.8 74.04 31.44 72.04 31.28 70.2C31.2 68.36 31.2 66.92 31.28 65.88C31.36 63.24 31.72 60.8 32.36 58.56C33 56.32 33.8 54.28 34.76 52.44C35.8 50.52 36.96 48.88 38.24 47.52C39.52 46.08 40.84 44.88 42.2 43.92C43.56 43.12 44.84 42.44 46.04 41.88C47.32 41.32 48.52 40.88 49.64 40.56C51.96 39.92 54.68 39.6 57.8 39.6C61 39.52 64.44 40.2 68.12 41.64C68.36 42.76 68.52 43.72 68.6 44.52C68.68 45.24 68.72 45.88 68.72 46.44C68.72 47.08 68.68 47.6 68.6 48ZM108.975 52.44C110.015 54.04 111.015 55.88 111.975 57.96C113.015 59.96 113.975 62.6 114.855 65.88C115.815 69.08 116.775 73.12 117.735 78C118.695 82.8 119.695 88.76 120.735 95.88L113.775 99L111.375 91.2C109.295 92.88 107.255 94.12 105.255 94.92C103.255 95.64 101.375 96.12 99.6153 96.36C97.8553 96.52 96.2953 96.56 94.9353 96.48C93.5753 96.32 92.5753 96.16 91.9353 96C91.0553 95.84 89.8953 95.24 88.4553 94.2C87.0953 93.08 85.9753 91.76 85.0953 90.24C84.2953 88.72 83.8153 87.04 83.6553 85.2C83.4953 83.36 83.7753 81.48 84.4953 79.56C85.3753 78.12 86.3353 76.76 87.3753 75.48C88.4153 74.2 89.6553 73.08 91.0953 72.12C92.6153 71.08 94.3753 70.2 96.3753 69.48C98.4553 68.68 100.935 68.08 103.815 67.68C103.415 65.44 102.975 63.88 102.495 63C102.095 62.12 101.775 61.52 101.535 61.2C101.295 60.8 100.615 60.28 99.4953 59.64C98.3753 58.92 96.7753 58.84 94.6953 59.4C93.7353 59.64 92.5353 60.16 91.0953 60.96C89.6553 61.76 88.2553 62.6 86.8953 63.48C85.6153 64.36 84.4553 65.16 83.4153 65.88C82.4553 66.6 81.9353 67 81.8553 67.08C81.3753 66.92 80.6553 66.48 79.6953 65.76C78.7353 64.96 77.2553 63.68 75.2553 61.92C77.8153 59.12 80.2553 56.88 82.5753 55.2C84.9753 53.44 87.0953 52.08 88.9353 51.12C90.7753 50.16 92.2953 49.52 93.4953 49.2C94.6953 48.8 95.3753 48.56 95.5353 48.48C96.0153 48.4 96.7353 48.36 97.6953 48.36C98.7353 48.28 99.8553 48.36 101.055 48.6C102.335 48.84 103.655 49.24 105.015 49.8C106.375 50.36 107.695 51.24 108.975 52.44ZM99.1353 89.4C100.015 89.48 100.975 89.36 102.015 89.04C102.895 88.8 103.935 88.44 105.135 87.96C106.415 87.48 107.815 86.68 109.335 85.56C108.855 83.24 108.415 81.52 108.015 80.4C107.615 79.2 107.175 78.4 106.695 78C106.295 77.6 105.775 77.52 105.135 77.76C104.575 77.92 103.815 78.16 102.855 78.48C101.655 78.88 100.735 79.24 100.095 79.56C99.7753 79.72 99.3353 79.96 98.7753 80.28C98.2953 80.52 97.8153 80.92 97.3353 81.48C96.8553 81.96 96.4553 82.56 96.1353 83.28C95.8153 83.92 95.6553 84.64 95.6553 85.44C95.6553 86.32 95.8953 87.16 96.3753 87.96C96.8553 88.76 97.7753 89.24 99.1353 89.4ZM136.302 67.32C136.302 68.84 136.342 69.8 136.422 70.2C136.582 70.84 136.662 71.24 136.662 71.4C136.742 71.56 136.822 72.32 136.902 73.68C136.982 74.64 137.102 75.72 137.262 76.92C137.502 78.12 137.822 79.32 138.222 80.52C138.702 81.72 139.302 82.8 140.022 83.76C140.822 84.72 141.822 85.44 143.022 85.92C144.782 86.56 146.142 86.6 147.102 86.04C148.062 85.48 148.742 84.96 149.142 84.48C150.102 83.36 150.542 82.16 150.462 80.88C150.382 79.52 150.262 78.32 150.102 77.28C149.862 75.68 149.542 73.92 149.142 72C148.742 70 148.262 67.84 147.702 65.52L157.062 64.92C157.942 69.56 158.742 73.16 159.462 75.72C160.262 78.2 160.822 79.84 161.142 80.64C161.782 81.76 162.862 83.52 164.382 85.92C165.902 88.24 168.102 90.84 170.982 93.72C170.342 94.76 169.502 95.56 168.462 96.12C167.502 96.76 166.862 97.2 166.542 97.44C166.222 97.6 165.622 97.84 164.742 98.16C163.382 98.56 162.102 98.8 160.902 98.88C159.782 98.88 159.022 98.64 158.622 98.16C158.142 97.36 157.422 96.32 156.462 95.04C155.582 93.68 154.342 91.84 152.742 89.52C151.862 91.12 150.862 92.44 149.742 93.48C148.622 94.44 147.502 95.24 146.382 95.88C145.262 96.44 144.182 96.84 143.142 97.08C142.182 97.32 141.382 97.44 140.742 97.44C140.262 97.44 139.782 97.44 139.302 97.44C138.822 97.44 138.302 97.4 137.742 97.32C136.702 97.24 135.222 96.56 133.302 95.28C131.382 93.92 129.742 92.12 128.382 89.88C127.742 88.6 127.182 87.24 126.702 85.8C126.222 84.28 125.822 82.6 125.502 80.76C125.182 78.92 124.942 76.84 124.782 74.52C124.622 72.2 124.622 69.52 124.782 66.48L136.302 67.32ZM129.942 41.4C130.822 42.76 131.862 44.04 133.062 45.24C134.102 46.28 135.302 47.28 136.662 48.24C138.022 49.12 139.582 49.76 141.342 50.16C143.022 50.56 144.862 50.68 146.862 50.52C148.942 50.28 150.902 50 152.742 49.68C154.822 49.36 156.942 48.88 159.102 48.24L160.062 52.8C157.982 53.76 155.742 54.68 153.342 55.56C151.262 56.28 148.902 56.96 146.262 57.6C143.622 58.16 140.862 58.4 137.982 58.32C135.902 58.32 134.182 58.12 132.822 57.72C131.462 57.24 130.342 56.64 129.462 55.92C128.582 55.2 127.862 54.4 127.302 53.52C126.822 52.64 126.422 51.76 126.102 50.88C125.942 50.64 126.022 50 126.342 48.96C126.742 47.92 127.222 46.84 127.782 45.72C128.422 44.36 129.142 42.92 129.942 41.4ZM220.443 97.32C220.603 94.68 220.563 92.28 220.323 90.12C220.163 87.88 219.883 85.92 219.483 84.24C219.163 82.48 218.763 81 218.283 79.8C217.883 78.52 217.523 77.52 217.203 76.8L216.123 74.64C215.883 74.16 215.243 73.72 214.203 73.32C213.243 72.84 212.203 72.76 211.083 73.08C209.963 73.48 209.163 74 208.683 74.64C208.283 75.2 207.923 76.04 207.603 77.16C207.523 77.24 207.483 77.96 207.483 79.32V83.4C207.483 84.84 207.483 86.16 207.483 87.36C207.563 88.48 207.643 89.04 207.723 89.04L204.363 89.4C203.963 89.4 203.563 89.4 203.163 89.4C202.843 89.4 202.483 89.44 202.083 89.52C201.363 89.68 200.883 88.72 200.643 86.64C200.403 84.8 200.043 82.68 199.563 80.28C199.163 78.04 198.843 76.6 198.603 75.96C198.443 75.24 198.363 74.84 198.363 74.76C198.043 73.96 197.523 73.36 196.803 72.96C196.083 72.48 195.323 72.28 194.523 72.36C192.923 72.52 191.723 73.12 190.923 74.16C190.203 75.12 189.763 76.04 189.603 76.92C189.283 78.76 189.203 81 189.363 83.64C189.523 86.2 189.723 88.68 189.963 91.08C190.283 93.48 190.523 95.56 190.683 97.32C190.843 99.08 190.763 100 190.443 100.08C189.323 100.32 188.123 100.56 186.843 100.8C185.643 101.04 184.363 101.24 183.003 101.4C182.763 100.04 182.443 98.44 182.043 96.6C181.723 94.68 181.243 92.2 180.603 89.16C180.043 86.04 179.283 82.16 178.323 77.52C177.363 72.88 176.163 67.08 174.723 60.12C176.243 59.32 177.563 58.88 178.683 58.8C179.883 58.64 180.843 58.64 181.563 58.8C182.363 58.96 182.963 59.2 183.363 59.52C183.843 59.84 184.083 60 184.083 60C184.403 60.24 184.723 60.76 185.043 61.56C185.363 62.28 185.643 63 185.883 63.72C186.203 64.44 186.483 65.04 186.723 65.52C187.043 65.92 187.283 65.88 187.443 65.4C187.923 64.28 188.763 63.24 189.963 62.28C191.243 61.24 192.723 60.56 194.403 60.24C195.203 60.08 196.203 60.04 197.403 60.12C198.683 60.2 199.883 60.6 201.003 61.32C202.763 62.76 204.003 64.24 204.723 65.76C205.203 66.08 205.603 66.16 205.923 66C206.323 65.76 206.603 65.56 206.763 65.4C207.003 65.16 207.563 64.48 208.443 63.36C209.403 62.24 210.763 61.44 212.523 60.96C213.643 60.64 214.883 60.52 216.243 60.6C217.603 60.68 218.883 61.08 220.083 61.8C221.283 62.52 222.403 63.72 223.443 65.4C224.563 67.08 225.403 68.56 225.963 69.84C226.523 71.44 227.003 73.12 227.403 74.88C227.883 76.56 228.243 78.48 228.483 80.64C228.723 82.72 228.883 85.12 228.963 87.84C229.043 90.48 229.003 93.56 228.843 97.08L220.443 97.32ZM264.606 66.84C265.566 68.44 266.366 70.6 267.006 73.32C267.646 76.04 267.806 78.84 267.486 81.72C267.246 84.52 266.326 87.2 264.726 89.76C263.126 92.32 260.606 94.24 257.166 95.52C253.726 96.8 250.566 97.04 247.686 96.24C244.886 95.36 242.446 93.92 240.366 91.92C238.286 89.92 236.646 87.6 235.446 84.96C234.326 82.32 233.766 79.84 233.766 77.52C233.686 73.36 234.326 70.08 235.686 67.68C237.046 65.2 238.606 63.32 240.366 62.04C242.126 60.76 243.846 59.92 245.526 59.52C247.206 59.12 248.366 58.88 249.006 58.8C250.206 58.64 251.486 58.68 252.846 58.92C254.286 59.16 255.726 59.6 257.166 60.24C258.606 60.88 259.966 61.76 261.246 62.88C262.526 64 263.646 65.32 264.606 66.84ZM252.366 85.8C252.766 85.72 253.326 85.44 254.046 84.96C254.766 84.4 255.406 83.64 255.966 82.68C256.606 81.64 257.046 80.4 257.286 78.96C257.606 77.52 257.566 75.84 257.166 73.92C256.846 72 256.206 70.52 255.246 69.48C254.286 68.44 253.286 67.68 252.246 67.2C251.206 66.64 250.246 66.32 249.366 66.24C248.486 66.16 247.926 66.12 247.686 66.12C246.726 66.2 245.766 66.6 244.806 67.32C243.846 67.8 243.206 68.6 242.886 69.72C242.566 70.76 242.366 71.88 242.286 73.08C242.286 74.2 242.366 75.2 242.526 76.08C242.686 76.96 242.846 77.92 243.006 78.96C243.246 80 243.806 81.12 244.686 82.32C245.566 83.44 246.486 84.28 247.446 84.84C248.486 85.4 249.446 85.72 250.326 85.8C251.206 85.88 251.886 85.88 252.366 85.8ZM309.61 52.92C310.01 53.32 310.25 53.96 310.33 54.84C310.41 55.64 310.29 56.88 309.97 58.56C308.45 66.32 307.25 72.48 306.37 77.04C305.57 81.6 304.97 85.08 304.57 87.48C304.33 88.68 304.13 89.64 303.97 90.36C303.89 91.08 303.81 91.68 303.73 92.16C303.73 92.56 303.69 92.92 303.61 93.24C303.53 93.48 303.45 93.76 303.37 94.08C303.29 94.72 303.05 95.96 302.65 97.8C302.25 99.64 301.73 101.48 301.09 103.32C300.53 105.24 299.85 107.08 299.05 108.84C298.25 110.6 297.33 112.08 296.29 113.28C294.21 115.68 291.97 117.4 289.57 118.44C287.17 119.48 285.05 120 283.21 120C281.37 119.92 279.89 119.8 278.77 119.64C277.65 119.56 276.29 119.28 274.69 118.8C271.89 117.6 269.21 116.28 266.65 114.84C264.09 113.4 261.69 111.8 259.45 110.04L268.21 98.88C271.17 101.92 274.05 104.04 276.85 105.24C279.65 106.44 281.65 107.08 282.85 107.16C283.49 107.4 284.29 107.52 285.25 107.52C286.21 107.52 287.13 107.4 288.01 107.16C288.97 106.92 289.85 106.6 290.65 106.2C291.53 105.8 292.17 105.28 292.57 104.64C293.21 103.84 293.81 102.84 294.37 101.64C294.85 100.6 295.33 99.32 295.81 97.8C296.29 96.2 296.65 94.28 296.89 92.04C295.53 92.36 294.21 92.52 292.93 92.52C291.73 92.52 290.65 92.44 289.69 92.28C288.73 92.12 287.93 91.96 287.29 91.8C286.73 91.56 286.45 91.44 286.45 91.44C284.85 90.88 283.45 90.04 282.25 88.92C281.05 87.72 280.09 86.4 279.37 84.96C278.73 83.44 278.33 81.88 278.17 80.28C278.01 78.6 278.17 76.96 278.65 75.36C279.13 73.68 279.89 72.24 280.93 71.04C281.97 69.76 283.13 68.68 284.41 67.8C285.77 66.92 287.13 66.24 288.49 65.76C289.93 65.28 291.21 64.96 292.33 64.8C292.41 64.8 292.85 64.76 293.65 64.68C294.45 64.52 295.57 64.44 297.01 64.44C297.73 64.44 298.45 64.48 299.17 64.56C299.89 64.56 300.65 64.6 301.45 64.68L303.85 54.12C304.89 53.72 305.77 53.44 306.49 53.28C307.21 53.04 307.81 52.88 308.29 52.8C308.85 52.72 309.29 52.76 309.61 52.92ZM298.21 81.96C298.61 81.24 298.89 80.2 299.05 78.84C299.21 77.4 299.37 76.32 299.53 75.6C299.61 75.28 299.33 74.96 298.69 74.64C298.05 74.24 297.25 74 296.29 73.92C295.33 73.84 294.33 74 293.29 74.4C292.25 74.8 291.37 75.6 290.65 76.8C289.53 78.72 289.33 80.32 290.05 81.6C290.77 82.8 291.53 83.48 292.33 83.64C293.69 84.04 294.89 84.04 295.93 83.64C297.05 83.16 297.81 82.6 298.21 81.96ZM347.82 72.24C348.06 74.24 347.9 75.76 347.34 76.8C346.78 77.76 346.3 78.48 345.9 78.96C345.5 79.44 344.42 79.96 342.66 80.52C340.9 81.08 338.86 81.32 336.54 81.24C336.54 81.24 336.22 81.2 335.58 81.12C334.94 81.04 334.14 80.88 333.18 80.64C332.3 80.4 331.3 80.04 330.18 79.56C329.06 79 327.98 78.28 326.94 77.4C326.54 78.04 326.42 78.84 326.58 79.8C326.82 80.76 327.02 81.56 327.18 82.2C327.34 82.76 327.86 83.36 328.74 84C329.62 84.56 330.7 85.04 331.98 85.44C333.02 85.68 334.1 85.8 335.22 85.8C336.18 85.8 337.22 85.64 338.34 85.32C339.54 85 340.7 84.36 341.82 83.4L345.3 90C344.9 90.32 344.14 90.88 343.02 91.68C341.98 92.4 340.9 92.92 339.78 93.24C338.42 93.64 336.78 93.92 334.86 94.08C333.02 94.24 331.14 94.12 329.22 93.72C328.26 93.56 327.14 93.2 325.86 92.64C324.66 92 323.46 91.16 322.26 90.12C321.14 89 320.1 87.68 319.14 86.16C318.26 84.56 317.66 82.72 317.34 80.64C317.02 78.56 317.02 76.44 317.34 74.28C317.66 72.12 318.3 70.12 319.26 68.28C320.22 66.36 321.5 64.68 323.1 63.24C324.7 61.72 326.58 60.6 328.74 59.88C331.06 59 333.46 58.8 335.94 59.28C338.42 59.68 340.66 60.68 342.66 62.28C343.94 63.32 345.06 64.72 346.02 66.48C347.06 68.24 347.66 70.16 347.82 72.24ZM339.3 73.92C339.78 73.04 339.9 72.16 339.66 71.28C339.42 70.32 339.02 69.52 338.46 68.88C337.66 68 336.74 67.44 335.7 67.2C334.66 66.96 333.78 66.88 333.06 66.96C332.34 67.12 331.62 67.44 330.9 67.92C330.18 68.32 329.7 68.72 329.46 69.12C328.9 70.08 328.78 71.08 329.1 72.12C329.42 73.08 330.46 73.84 332.22 74.4C333.74 74.88 335.14 75.16 336.42 75.24C337.7 75.24 338.66 74.8 339.3 73.92ZM397.435 98.16C396.955 98.8 396.475 99.32 395.995 99.72C395.515 100.12 394.955 100.4 394.315 100.56C393.755 100.8 393.075 100.8 392.275 100.56C391.155 100.24 390.275 99.84 389.635 99.36C389.075 98.88 388.595 98.36 388.195 97.8C387.795 97.24 387.515 96.6 387.355 95.88L386.515 62.64L382.675 61.92L382.075 66C381.195 70.8 380.035 75.36 378.595 79.68C377.235 84 375.355 87.8 372.955 91.08C370.635 94.36 367.755 97 364.315 99C360.875 100.92 356.715 102 351.835 102.24L352.315 90.24C356.715 89.76 360.315 88.32 363.115 85.92C365.915 83.52 368.155 80.72 369.835 77.52C371.515 74.24 372.755 70.84 373.555 67.32C374.435 63.8 375.115 60.68 375.595 57.96L376.195 54.36L396.235 54.84L397.435 98.16Z" fill="black"/>
</g>
<defs>
<clipPath id="clip0_516_142">
<rect width="431" height="138" fill="white"/>
</clipPath>
</defs>
</svg>
