<svg width="29" height="29" viewBox="0 0 29 29" fill="none" xmlns="http://www.w3.org/2000/svg">
<path d="M3.60645 7.09863H5.93431H24.5573" stroke="#626870" stroke-width="2" stroke-linecap="round" stroke-linejoin="round"/>
<path d="M9.42637 7.0991V4.77123C9.42637 4.15384 9.67163 3.56174 10.1082 3.12518C10.5448 2.68862 11.1369 2.44336 11.7542 2.44336H16.41C17.0274 2.44336 17.6195 2.68862 18.056 3.12518C18.4926 3.56174 18.7378 4.15384 18.7378 4.77123V7.0991M22.2297 7.0991V23.3942C22.2297 24.0116 21.9844 24.6037 21.5478 25.0402C21.1113 25.4768 20.5192 25.722 19.9018 25.722H8.26244C7.64505 25.722 7.05295 25.4768 6.61639 25.0402C6.17983 24.6037 5.93457 24.0116 5.93457 23.3942V7.0991H22.2297Z" stroke="#626870" stroke-width="2" stroke-linecap="round" stroke-linejoin="round"/>
<path d="M11.7539 12.9189V19.9026" stroke="#626870" stroke-width="2" stroke-linecap="round" stroke-linejoin="round"/>
<path d="M16.4097 12.9189V19.9026" stroke="#626870" stroke-width="2" stroke-linecap="round" stroke-linejoin="round"/>
</svg>
