<svg width="20" height="25" viewBox="0 0 20 25" fill="none" xmlns="http://www.w3.org/2000/svg">
<path d="M20 12.5C20 12.1685 19.8683 11.8505 19.6339 11.6161C19.3995 11.3817 19.0815 11.25 18.75 11.25L9.2625 11.25L12.1375 8.3875C12.2547 8.2713 12.3477 8.13305 12.4111 7.98072C12.4746 7.8284 12.5072 7.66502 12.5072 7.5C12.5072 7.33499 12.4746 7.1716 12.4111 7.01928C12.3477 6.86696 12.2547 6.72871 12.1375 6.6125C12.0213 6.49534 11.883 6.40235 11.7307 6.33889C11.5784 6.27542 11.415 6.24275 11.25 6.24275C11.085 6.24275 10.9216 6.27542 10.7693 6.33889C10.617 6.40235 10.4787 6.49534 10.3625 6.6125L5.3625 11.6125C5.2487 11.7314 5.15949 11.8716 5.1 12.025C4.97498 12.3293 4.97498 12.6707 5.1 12.975C5.15949 13.1284 5.2487 13.2686 5.3625 13.3875L10.3625 18.3875C10.479 18.504 10.6174 18.5965 10.7697 18.6596C10.922 18.7226 11.0852 18.7551 11.25 18.7551C11.4148 18.7551 11.578 18.7226 11.7303 18.6596C11.8826 18.5965 12.021 18.504 12.1375 18.3875C12.254 18.271 12.3465 18.1326 12.4096 17.9803C12.4727 17.828 12.5051 17.6648 12.5051 17.5C12.5051 17.3352 12.4727 17.172 12.4096 17.0197C12.3465 16.8674 12.254 16.729 12.1375 16.6125L9.2625 13.75L18.75 13.75C19.0815 13.75 19.3995 13.6183 19.6339 13.3839C19.8683 13.1495 20 12.8315 20 12.5ZM3.75 25L16.25 25C17.2446 25 18.1984 24.6049 18.9017 23.9017C19.6049 23.1984 20 22.2446 20 21.25L20 17.5C20 17.1685 19.8683 16.8505 19.6339 16.6161C19.3995 16.3817 19.0815 16.25 18.75 16.25C18.4185 16.25 18.1005 16.3817 17.8661 16.6161C17.6317 16.8505 17.5 17.1685 17.5 17.5L17.5 21.25C17.5 21.5815 17.3683 21.8995 17.1339 22.1339C16.8995 22.3683 16.5815 22.5 16.25 22.5L3.75 22.5C3.41848 22.5 3.10053 22.3683 2.86611 22.1339C2.63169 21.8995 2.5 21.5815 2.5 21.25L2.5 3.75C2.5 3.41848 2.63169 3.10054 2.86612 2.86612C3.10054 2.6317 3.41848 2.5 3.75 2.5L16.25 2.5C16.5815 2.5 16.8995 2.6317 17.1339 2.86612C17.3683 3.10054 17.5 3.41848 17.5 3.75L17.5 7.5C17.5 7.83152 17.6317 8.14946 17.8661 8.38388C18.1005 8.61831 18.4185 8.75 18.75 8.75C19.0815 8.75 19.3995 8.61831 19.6339 8.38388C19.8683 8.14946 20 7.83152 20 7.5L20 3.75C20 2.75544 19.6049 1.80161 18.9017 1.09835C18.1984 0.39509 17.2446 1.66646e-06 16.25 1.57951e-06L3.75 4.86728e-07C2.75544 3.99781e-07 1.80161 0.395089 1.09835 1.09835C0.395088 1.80161 3.73326e-08 2.75544 -4.96148e-08 3.75L-1.57951e-06 21.25C-1.66646e-06 22.2446 0.395086 23.1984 1.09835 23.9016C1.80161 24.6049 2.75544 25 3.75 25Z" fill="#626C84"/>
</svg>
