<svg width="43" height="35" viewBox="0 0 43 35" fill="none" xmlns="http://www.w3.org/2000/svg">
<g filter="url(#filter0_f)">
<path d="M4.55569 13.877C4.24879 12.7316 4.92851 11.5543 6.07388 11.2474L31.0477 4.55569C32.1931 4.24879 33.3704 4.9285 33.6773 6.07388L37.4801 20.266C37.787 21.4114 37.1072 22.5887 35.9619 22.8956L10.988 29.5873C9.84268 29.8942 8.66538 29.2145 8.35847 28.0691L4.55569 13.877Z" fill="#274AA6"/>
<path d="M4.55569 13.877C4.24879 12.7316 4.92851 11.5543 6.07388 11.2474L29.7139 4.91308C30.8593 4.60618 32.0366 5.2859 32.3435 6.43127L35.6995 18.9562C36.0064 20.1015 35.3267 21.2788 34.1813 21.5857L10.5413 27.9201C9.39593 28.227 8.21863 27.5473 7.91173 26.4019L4.55569 13.877Z" fill="#3469F6"/>
<path d="M10.8215 25.1378L10.709 24.7179L10.2867 24.831L10.2004 24.5091L10.6227 24.3959L10.5102 23.9759L10.8415 23.8872L10.954 24.3071L11.3763 24.194L11.4626 24.5159L11.0403 24.6291L11.1528 25.0491L10.8215 25.1378Z" fill="white"/>
<path d="M11.9933 25.0814L12.3691 23.5629L11.6015 23.7685L11.5184 23.4582L12.6942 23.1432L12.7668 23.4138L12.3993 24.9726L11.9933 25.0814Z" fill="white"/>
<path d="M14.1139 24.8658C13.866 24.8055 13.6668 24.7089 13.5161 24.5759C13.365 24.4413 13.2597 24.2628 13.2001 24.0404C13.1405 23.818 13.1427 23.6115 13.2066 23.421C13.2702 23.2289 13.3942 23.0448 13.5788 22.8686L13.7982 23.0624C13.6692 23.2153 13.5847 23.3605 13.5448 23.4979C13.5061 23.6333 13.5086 23.7827 13.5524 23.946C13.5961 24.1093 13.6688 24.2407 13.7705 24.3401C13.8733 24.4376 14.0188 24.5203 14.2071 24.5883L14.1139 24.8658Z" fill="white"/>
<path d="M14.9929 24.3077C14.7907 24.3619 14.5945 24.3452 14.4044 24.2578L14.5202 23.9342C14.6619 23.9963 14.7934 24.011 14.9147 23.9785C15.0112 23.9527 15.0784 23.8988 15.1165 23.817C15.1546 23.7351 15.1646 23.6357 15.1466 23.5188C15.0795 23.6168 14.9791 23.6837 14.8453 23.7196C14.6665 23.7675 14.5116 23.759 14.3809 23.694C14.2512 23.627 14.1641 23.5103 14.1195 23.3439C14.0753 23.179 14.0964 23.0275 14.1828 22.8893C14.2702 22.7492 14.4057 22.6546 14.5893 22.6054C14.6966 22.5766 14.7898 22.5667 14.8688 22.5755C14.9495 22.5839 15.0292 22.6109 15.1081 22.6564C15.2718 22.7509 15.3918 22.9405 15.468 23.2251C15.5405 23.4958 15.5363 23.7286 15.4552 23.9237C15.3741 24.1189 15.22 24.2468 14.9929 24.3077ZM14.5979 23.3933C14.6613 23.4246 14.7365 23.4286 14.8236 23.4053C14.9107 23.382 14.9731 23.3411 15.0108 23.2826C15.0481 23.2226 15.0569 23.1561 15.0373 23.083C15.0178 23.0099 14.976 22.9569 14.9122 22.9239C14.8484 22.891 14.7721 22.8865 14.6835 22.9102C14.5964 22.9336 14.5342 22.9752 14.4969 23.0352C14.4608 23.0933 14.4529 23.1604 14.4734 23.2366C14.4929 23.3097 14.5344 23.3619 14.5979 23.3933Z" fill="white"/>
<path d="M17.1429 23.474C17.0505 23.6705 16.897 23.7975 16.6823 23.855C16.4677 23.9125 16.272 23.8791 16.0953 23.7547C15.9186 23.6304 15.7978 23.4469 15.7328 23.2042C15.6682 22.9631 15.6821 22.7443 15.7745 22.5479C15.8664 22.3499 16.0197 22.2221 16.2344 22.1646C16.4475 22.1075 16.6424 22.1411 16.8191 22.2655C16.9973 22.3894 17.1189 22.5727 17.184 22.8154C17.2486 23.0564 17.2349 23.276 17.1429 23.474ZM16.2994 23.4525C16.3926 23.5325 16.4928 23.5582 16.6001 23.5294C16.7074 23.5007 16.7801 23.4295 16.818 23.316C16.8571 23.2005 16.8562 23.0666 16.8153 22.9141C16.7753 22.7648 16.7087 22.6501 16.6156 22.5701C16.5221 22.4884 16.4224 22.4618 16.3166 22.4901C16.2109 22.5185 16.1384 22.5904 16.0994 22.7059C16.0599 22.8198 16.0606 22.953 16.1014 23.1054C16.1418 23.2563 16.2078 23.372 16.2994 23.4525Z" fill="white"/>
<path d="M18.2402 23.4376C17.9742 23.5088 17.7367 23.4716 17.5276 23.3259L17.7118 23.024C17.8634 23.1234 18.0124 23.1535 18.1586 23.1144C18.227 23.096 18.2774 23.0633 18.3098 23.0163C18.3434 22.9673 18.3518 22.9117 18.3352 22.8495C18.3172 22.7826 18.2755 22.7388 18.2099 22.718C18.1443 22.6972 18.061 22.7004 17.9599 22.7275L17.8106 22.7675L17.6933 22.5539L17.9779 22.0575L17.3363 22.2294L17.2538 21.9214L18.3573 21.6257L18.4299 21.8964L18.1225 22.4013C18.4283 22.3727 18.6158 22.4876 18.685 22.7458C18.727 22.9029 18.7078 23.0456 18.6271 23.1739C18.548 23.3017 18.419 23.3896 18.2402 23.4376Z" fill="white"/>
<path d="M19.2986 23.4766L19.0791 23.2828C19.2082 23.1298 19.2921 22.9857 19.3308 22.8503C19.3707 22.7129 19.3688 22.5625 19.325 22.3992C19.2813 22.2359 19.208 22.1055 19.1052 22.008C19.0035 21.9085 18.8585 21.8249 18.6703 21.7569L18.7635 21.4794C19.0113 21.5397 19.2108 21.6371 19.3619 21.7717C19.5126 21.9047 19.6177 22.0824 19.6773 22.3048C19.7369 22.5272 19.7349 22.7345 19.6714 22.9266C19.6074 23.1171 19.4831 23.3004 19.2986 23.4766Z" fill="white"/>
<path d="M20.4104 22.8261L20.0672 21.5452L19.8013 21.6914L19.6479 21.4175L20.0793 21.1518L20.3243 21.0862L20.765 22.731L20.4104 22.8261Z" fill="white"/>
<path d="M21.7125 22.5072C21.4465 22.5784 21.209 22.5412 20.9999 22.3955L21.1841 22.0936C21.3357 22.193 21.4847 22.2231 21.6309 22.1839C21.6993 22.1656 21.7498 22.1329 21.7822 22.0859C21.8157 22.0369 21.8242 21.9813 21.8075 21.9191C21.7896 21.8522 21.7478 21.8084 21.6822 21.7876C21.6166 21.7668 21.5333 21.77 21.4322 21.7971L21.2829 21.8371L21.1656 21.6234L21.4502 21.1271L20.8086 21.299L20.7261 20.991L21.8297 20.6953L21.9022 20.966L21.5949 21.4709C21.9006 21.4423 22.0881 21.5571 22.1573 21.8153C22.1994 21.9724 22.1801 22.1151 22.0994 22.2434C22.0204 22.3713 21.8914 22.4592 21.7125 22.5072Z" fill="white"/>
<path d="M23.1616 22.1189C22.8956 22.1902 22.6581 22.1529 22.449 22.0072L22.6332 21.7053C22.7848 21.8047 22.9338 21.8348 23.08 21.7957C23.1484 21.7773 23.1988 21.7446 23.2312 21.6976C23.2648 21.6486 23.2732 21.593 23.2566 21.5308C23.2386 21.4639 23.1969 21.4201 23.1313 21.3993C23.0657 21.3785 22.9824 21.3817 22.8813 21.4088L22.732 21.4488L22.6147 21.2352L22.8993 20.7388L22.2577 20.9107L22.1752 20.6027L23.2788 20.307L23.3513 20.5777L23.044 21.0826C23.3497 21.0541 23.5372 21.1689 23.6064 21.4271C23.6485 21.5842 23.6292 21.7269 23.5485 21.8552C23.4694 21.9831 23.3405 22.071 23.1616 22.1189Z" fill="white"/>
<path d="M23.8461 21.3128L23.7548 20.9722L24.4734 20.7796L24.5647 21.1203L23.8461 21.3128Z" fill="white"/>
<path d="M26.1473 21.0613C26.0549 21.2578 25.9014 21.3848 25.6867 21.4423C25.4721 21.4998 25.2764 21.4664 25.0997 21.342C24.923 21.2176 24.8021 21.0341 24.7371 20.7915C24.6725 20.5504 24.6864 20.3316 24.7788 20.1352C24.8708 19.9371 25.0241 19.8094 25.2388 19.7519C25.4519 19.6948 25.6467 19.7284 25.8234 19.8528C26.0017 19.9767 26.1233 20.16 26.1883 20.4026C26.2529 20.6437 26.2392 20.8633 26.1473 21.0613ZM25.3038 21.0398C25.3969 21.1198 25.4972 21.1455 25.6045 21.1167C25.7118 21.088 25.7844 21.0168 25.8224 20.9033C25.8614 20.7878 25.8605 20.6539 25.8197 20.5014C25.7797 20.3521 25.7131 20.2374 25.62 20.1573C25.5264 20.0757 25.4268 20.0491 25.321 20.0774C25.2152 20.1058 25.1428 20.1777 25.1037 20.2932C25.0642 20.4071 25.0649 20.5403 25.1058 20.6927C25.1462 20.8436 25.2122 20.9593 25.3038 21.0398Z" fill="white"/>
<path d="M27.2445 21.0249C26.9786 21.0961 26.741 21.0589 26.532 20.9132L26.7161 20.6113C26.8678 20.7107 27.0167 20.7408 27.1629 20.7016C27.2314 20.6833 27.2818 20.6506 27.3142 20.6036C27.3478 20.5546 27.3562 20.499 27.3395 20.4368C27.3216 20.3699 27.2798 20.3261 27.2143 20.3053C27.1487 20.2845 27.0653 20.2877 26.9642 20.3148L26.8149 20.3548L26.6977 20.1411L26.9823 19.6448L26.3407 19.8167L26.2581 19.5087L27.3617 19.213L27.4342 19.4837L27.1269 19.9886C27.4327 19.96 27.6201 20.0748 27.6893 20.333C27.7314 20.4901 27.7121 20.6328 27.6315 20.7611C27.5524 20.889 27.4234 20.9769 27.2445 21.0249Z" fill="white"/>
<path d="M27.929 20.2188L27.8377 19.8782L28.5563 19.6856L28.6476 20.0263L27.929 20.2188Z" fill="white"/>
<path d="M29.2576 20.4555L28.9144 19.1746L28.6485 19.3208L28.495 19.0469L28.9265 18.7812L29.1715 18.7156L29.6122 20.3604L29.2576 20.4555Z" fill="white"/>
<path d="M30.5457 20.1403C30.3092 20.2037 30.0836 20.1766 29.8687 20.0591L30.0163 19.742C30.1787 19.8252 30.3244 19.8495 30.4535 19.8149C30.539 19.792 30.6005 19.7539 30.6379 19.7005C30.6752 19.6472 30.6841 19.5839 30.6646 19.5108C30.6462 19.4424 30.6054 19.3958 30.5421 19.3711C30.4784 19.3448 30.403 19.3434 30.3159 19.3667C30.2288 19.39 30.1432 19.4346 30.0591 19.5005L29.8146 19.4185L29.6456 18.6011L30.6488 18.3322L30.7332 18.6472L30.038 18.8335L30.0949 19.1208C30.1646 19.0821 30.2336 19.0536 30.3021 19.0353C30.4716 18.9899 30.6209 18.9965 30.75 19.0553C30.8792 19.1141 30.9675 19.2321 31.015 19.4094C31.0612 19.5821 31.0414 19.7349 30.9553 19.868C30.8704 19.9991 30.7339 20.0899 30.5457 20.1403Z" fill="white"/>
<path d="M7.24562 15.0231C7.09217 14.4505 7.43203 13.8618 8.00471 13.7084L19.9359 10.5114C20.5086 10.358 21.0972 10.6978 21.2507 11.2705L21.38 11.7531C21.5334 12.3258 21.1936 12.9144 20.6209 13.0679L8.68972 16.2648C8.11703 16.4183 7.52838 16.0784 7.37493 15.5057L7.24562 15.0231Z" fill="white"/>
<path d="M8.25832 18.8022C8.10487 18.2295 8.44472 17.6409 9.01741 17.4874L25.8392 12.98C26.4119 12.8266 27.0005 13.1664 27.154 13.7391L27.2833 14.2217C27.4368 14.7944 27.0969 15.383 26.5242 15.5365L9.70241 20.0439C9.12973 20.1973 8.54108 19.8575 8.38763 19.2848L8.25832 18.8022Z" fill="white"/>
</g>
<defs>
<filter id="filter0_f" x="0" y="0" width="42.0356" height="34.1431" filterUnits="userSpaceOnUse" color-interpolation-filters="sRGB">
<feFlood flood-opacity="0" result="BackgroundImageFix"/>
<feBlend mode="normal" in="SourceGraphic" in2="BackgroundImageFix" result="shape"/>
<feGaussianBlur stdDeviation="2" result="effect1_foregroundBlur"/>
</filter>
</defs>
</svg>
