<svg width="52" height="53" viewBox="0 0 52 53" fill="none" xmlns="http://www.w3.org/2000/svg">
<g clip-path="url(#clip0)">
<path d="M17.123 12.3225L14.4255 13.8798C14.2918 13.957 14.1271 13.9035 14.0563 13.7809L10.7743 8.09626C10.6971 7.9625 10.7506 7.79783 10.8732 7.72704L13.5706 6.16969C13.7044 6.09246 13.8691 6.14601 13.9399 6.26862L17.2219 11.9533C17.2927 12.0759 17.2567 12.2452 17.123 12.3225Z" fill="black"/>
<path fill-rule="evenodd" clip-rule="evenodd" d="M11.1892 8.00955L14.3389 13.4651L16.8072 12.04L13.6575 6.58448L11.1892 8.00955ZM10.4258 8.29755C10.2312 7.96056 10.3678 7.5541 10.6721 7.37842L13.3695 5.82107C13.7065 5.6265 14.1129 5.76305 14.2886 6.06735L17.5706 11.752C17.7463 12.0563 17.6613 12.4766 17.3244 12.6711L14.6269 14.2285C14.29 14.423 13.8835 14.2865 13.7078 13.9822L10.4258 8.29755Z" fill="black"/>
<path d="M18.5214 6.61068L8.77952 12.2352C7.73176 12.8401 6.38441 12.4885 5.77305 11.4296L5.11021 10.2815C4.50529 9.23376 4.85689 7.8864 5.91579 7.27504L15.6577 1.65056C16.7054 1.04564 18.0528 1.39724 18.6642 2.45614L19.327 3.60421C19.9208 4.6584 19.5692 6.00576 18.5214 6.61068Z" fill="#BCAFAA"/>
<path d="M17.9232 5.57403L8.18127 11.1985C7.13352 11.8034 5.78616 11.4518 5.1748 10.3929L5.77329 11.4296C6.37821 12.4773 7.72086 12.8465 8.77976 12.2351L18.5217 6.61065C19.5694 6.00572 19.9386 4.66308 19.3272 3.60418L18.7287 2.56757C19.329 3.63291 18.9709 4.96911 17.9232 5.57403Z" fill="#A09592"/>
<path d="M15.6645 1.66167L5.92263 7.28615C4.87487 7.89108 4.50569 9.23372 5.11704 10.2926L5.77345 11.4295C5.78632 11.4518 5.79275 11.463 5.80563 11.4853C5.24701 10.4405 5.61321 9.14417 6.63867 8.55212L16.3917 2.9212C17.4172 2.32915 18.7294 2.67133 19.3484 3.66634C19.3356 3.64405 19.3291 3.6329 19.3162 3.61061L18.6534 2.46253C18.0485 1.41478 16.7123 1.05674 15.6645 1.66167Z" fill="#D1CAC7"/>
<path fill-rule="evenodd" clip-rule="evenodd" d="M6.11719 7.62345C5.25216 8.12287 4.96444 9.22346 5.45896 10.08L6.1218 11.2281C6.62122 12.0931 7.72181 12.3808 8.57835 11.8863L18.3202 6.26181C19.1715 5.77031 19.4642 4.66981 18.9773 3.8033L18.3156 2.65719C17.8162 1.79216 16.7156 1.50444 15.8591 1.99896L6.11719 7.62345ZM4.76169 10.4826C4.04637 9.24359 4.46185 7.64947 5.71462 6.92618L15.4565 1.30169C16.6955 0.586367 18.2896 1.00185 19.0129 2.25462L19.6757 3.40269L19.6779 3.40641C20.3772 4.64802 19.9665 6.24106 18.7228 6.95908L8.98092 12.5836C7.74194 13.2989 6.14782 12.8834 5.42453 11.6306L4.76169 10.4826Z" fill="black"/>
<path d="M26.6917 7.04141L24.375 7.04138L24.3749 11.1599L26.6916 11.1599L26.6917 7.04141Z" fill="black"/>
<path fill-rule="evenodd" clip-rule="evenodd" d="M23.9722 7.04148C23.9722 6.81915 24.1524 6.63892 24.3747 6.63892L26.6914 6.63895C26.9137 6.63895 27.094 6.81919 27.094 7.04152L27.0939 11.16C27.0939 11.3824 26.9137 11.5626 26.6913 11.5626L24.3747 11.5626C24.1523 11.5626 23.9721 11.3823 23.9721 11.16L23.9722 7.04148ZM24.7773 7.44405L24.7772 10.7575L26.2888 10.7575L26.2888 7.44407L24.7773 7.44405Z" fill="black"/>
<path d="M27.2434 7.04453L23.8239 7.0422C23.1087 7.039 22.5442 6.47318 22.5474 5.75797L22.5465 5.55044C22.5497 4.83522 23.1155 4.27076 23.8307 4.27396L27.2503 4.27629C27.9655 4.2795 28.5299 4.84531 28.5267 5.56052L28.5277 5.76806C28.5292 6.46569 27.9586 7.04773 27.2434 7.04453Z" fill="#E08484"/>
<path d="M27.2434 7.04453L23.8239 7.0422C23.1087 7.039 22.5442 6.47318 22.5474 5.75797L22.5465 5.55044C22.5497 4.83522 23.1155 4.27076 23.8307 4.27396L27.2503 4.27629C27.9655 4.2795 28.5299 4.84531 28.5267 5.56052L28.5277 5.76806C28.5292 6.46569 27.9586 7.04773 27.2434 7.04453Z" fill="#E08484"/>
<path d="M22.7657 6.41938L22.7648 6.21185C22.768 5.49664 23.3338 4.93218 24.049 4.93538L27.4686 4.93771C27.8725 4.9423 28.2293 5.12271 28.4652 5.40263C28.4414 4.71787 27.877 4.15205 27.1793 4.15356L23.7598 4.15123C23.0446 4.14802 22.474 4.73007 22.4756 5.4277L22.4765 5.63523C22.4779 5.94653 22.5813 6.22863 22.7675 6.44811C22.7675 6.44811 22.761 6.43697 22.7657 6.41938Z" fill="#E99697"/>
<path fill-rule="evenodd" clip-rule="evenodd" d="M22.9488 5.5504L22.9498 5.75958C22.9476 6.25072 23.3307 6.63688 23.8248 6.63944C23.825 6.63944 23.8252 6.63944 23.8255 6.63944L27.2435 6.64177L27.245 6.64177C27.7351 6.64397 28.1258 6.2448 28.1249 5.76902C28.1249 5.76892 28.1249 5.76883 28.1249 5.76874L28.1239 5.55853C28.1261 5.06741 27.743 4.68125 27.2489 4.67867C27.2487 4.67867 27.2485 4.67867 27.2482 4.67867L23.8302 4.67634L23.8287 4.67634C23.3379 4.67414 22.9519 5.05679 22.9488 5.5504ZM23.8315 3.8712C22.8928 3.86744 22.1479 4.6127 22.1437 5.54844L22.1446 5.75789C22.1414 6.69605 22.8865 7.44039 23.8219 7.44457L23.8234 7.44458L27.2414 7.44691C27.2417 7.44691 27.2419 7.44691 27.2422 7.44691C28.1821 7.45068 28.932 6.68609 28.93 5.767L28.93 5.76609L28.9291 5.56022C28.9323 4.62205 28.1872 3.87773 27.2518 3.87354L23.8323 3.87121C23.832 3.8712 23.8317 3.8712 23.8315 3.8712Z" fill="black"/>
<path d="M8.80019 21.5026L9.9585 19.4963L6.39172 17.4371L5.23341 19.4434L8.80019 21.5026Z" fill="black"/>
<path fill-rule="evenodd" clip-rule="evenodd" d="M10.1597 19.1476C10.3522 19.2588 10.4182 19.505 10.307 19.6975L9.14871 21.7038C9.03755 21.8964 8.79135 21.9623 8.59881 21.8512L5.03203 19.792C4.83949 19.6808 4.77352 19.4346 4.88468 19.242L6.04299 17.2357C6.15415 17.0432 6.40035 16.9772 6.59289 17.0884L10.1597 19.1476ZM9.40849 19.6436L6.53897 17.9869L5.78321 19.296L8.65273 20.9526L9.40849 19.6436Z" fill="black"/>
<path d="M4.95047 19.9148L6.65823 16.9523C7.01307 16.3313 6.80529 15.5595 6.1843 15.2047L6.00503 15.1001C5.38403 14.7453 4.61229 14.9531 4.25746 15.5741L2.5497 18.5366C2.19486 19.1576 2.40264 19.9294 3.02364 20.2842L3.2029 20.3888C3.80631 20.7389 4.59564 20.5358 4.95047 19.9148Z" fill="#E08484"/>
<path d="M4.95047 19.9148L6.65823 16.9523C7.01307 16.3313 6.80529 15.5595 6.1843 15.2047L6.00503 15.1001C5.38403 14.7453 4.61229 14.9531 4.25746 15.5741L2.5497 18.5366C2.19486 19.1576 2.40264 19.9294 3.02364 20.2842L3.2029 20.3888C3.80631 20.7389 4.59564 20.5358 4.95047 19.9148Z" fill="#E08484"/>
<path d="M2.99997 19.2133L4.70773 16.2508C5.06256 15.6298 5.85189 15.4267 6.4553 15.7768L6.63457 15.8814C6.6826 15.9131 6.73707 15.956 6.78511 15.9877C6.70225 15.664 6.49505 15.3823 6.18456 15.2049L6.00529 15.1003C5.38429 14.7455 4.61255 14.9533 4.25772 15.5743L2.54996 18.5369C2.23155 19.0922 2.37199 19.7988 2.86221 20.1846C2.78579 19.872 2.82255 19.5238 2.99997 19.2133Z" fill="#E99697"/>
<path fill-rule="evenodd" clip-rule="evenodd" d="M3.90859 15.3737C4.37466 14.5589 5.39254 14.2864 6.20502 14.7506L6.20814 14.7524L6.20813 14.7524L6.38598 14.8562C7.20002 15.3225 7.4721 16.3399 7.00804 17.152L7.00728 17.1534L5.30028 20.1146C5.30015 20.1149 5.30002 20.1151 5.29989 20.1153C4.83322 20.9311 3.7961 21.1983 3.00113 20.737L3.00033 20.7366L2.82252 20.6329C2.00846 20.1665 1.73637 19.1491 2.20044 18.337L2.20119 18.3356L2.2012 18.3356L3.90819 15.3744C3.90832 15.3742 3.90846 15.3739 3.90859 15.3737ZM5.80416 15.4489C5.37515 15.2047 4.85077 15.3477 4.60726 15.7738L4.6065 15.7752L4.6065 15.7752L2.8995 18.7364C2.89938 18.7366 2.89927 18.7368 2.89915 18.737C2.65435 19.1662 2.79721 19.6911 3.22363 19.9347L3.22675 19.9365L3.22674 19.9365L3.40521 20.0406C3.40532 20.0407 3.40544 20.0408 3.40555 20.0408C3.81714 20.2794 4.35809 20.1407 4.60121 19.7152L4.60197 19.7139L4.60197 19.7139L6.30897 16.7526C6.30908 16.7524 6.30919 16.7522 6.30929 16.752C6.55413 16.3228 6.41129 15.7979 5.98484 15.5543L5.98173 15.5525L5.98173 15.5525L5.80416 15.4489Z" fill="black"/>
<path fill-rule="evenodd" clip-rule="evenodd" d="M15.605 1.2754C15.7975 1.16423 16.0437 1.2302 16.1549 1.42275L18.9929 6.33828C19.1041 6.53083 19.0381 6.77704 18.8455 6.88821C18.653 6.99937 18.4068 6.9334 18.2956 6.74085L15.4576 1.82532C15.3465 1.63277 15.4124 1.38657 15.605 1.2754Z" fill="black"/>
<path fill-rule="evenodd" clip-rule="evenodd" d="M13.5986 2.43397C13.7912 2.3228 14.0374 2.38877 14.1486 2.58132L16.9865 7.49685C17.0977 7.6894 17.0317 7.93561 16.8392 8.04677C16.6466 8.15794 16.4004 8.09197 16.2893 7.89942L13.4513 2.98389C13.3401 2.79134 13.4061 2.54514 13.5986 2.43397Z" fill="black"/>
<path fill-rule="evenodd" clip-rule="evenodd" d="M11.5923 3.59242C11.7848 3.48125 12.031 3.54722 12.1422 3.73977L14.9802 8.6553C15.0914 8.84785 15.0254 9.09406 14.8328 9.20522C14.6403 9.31639 14.3941 9.25042 14.2829 9.05787L11.4449 4.14234C11.3338 3.94979 11.3997 3.70358 11.5923 3.59242Z" fill="black"/>
<path fill-rule="evenodd" clip-rule="evenodd" d="M9.58594 4.75074C9.77849 4.63957 10.0247 4.70555 10.1359 4.89809L12.9738 9.81363C13.085 10.0062 13.019 10.2524 12.8265 10.3635C12.634 10.4747 12.3877 10.4087 12.2766 10.2162L9.43859 5.30066C9.32742 5.10812 9.39339 4.86191 9.58594 4.75074Z" fill="black"/>
<path fill-rule="evenodd" clip-rule="evenodd" d="M7.57959 5.90882C7.77214 5.79766 8.01835 5.86363 8.12951 6.05617L10.9675 10.9717C11.0787 11.1643 11.0127 11.4105 10.8201 11.5216C10.6276 11.6328 10.3814 11.5668 10.2702 11.3743L7.43224 6.45874C7.32108 6.2662 7.38705 6.01999 7.57959 5.90882Z" fill="black"/>
<path fill-rule="evenodd" clip-rule="evenodd" d="M5.57325 7.06715C5.76579 6.95598 6.012 7.02195 6.12317 7.2145L8.96115 12.13C9.07232 12.3226 9.00635 12.5688 8.8138 12.68C8.62125 12.7911 8.37505 12.7251 8.26388 12.5326L5.42589 7.61707C5.31473 7.42452 5.3807 7.17831 5.57325 7.06715Z" fill="black"/>
<path d="M36.5862 49.1483C46.8481 43.2235 50.3642 30.1016 44.4394 19.8396C38.5147 9.57766 25.3927 6.06165 15.1307 11.9864C4.86878 17.9112 1.35276 31.0331 7.27752 41.2951C13.2023 51.557 26.3242 55.073 36.5862 49.1483Z" fill="#E08484"/>
<path d="M35.7301 47.6658C25.7207 53.4448 12.9925 50.2415 6.87491 40.5465C7.00534 40.7982 7.14693 41.0434 7.29494 41.2998C13.2219 51.5656 26.3378 55.08 36.6036 49.153C46.8694 43.2261 50.3838 30.1101 44.4568 19.8444C44.3152 19.5991 44.1561 19.3492 44.0145 19.104C49.3231 29.2512 45.7395 41.8869 35.7301 47.6658Z" fill="#D87171"/>
<path d="M15.8321 13.2016C25.8861 7.39688 38.6928 10.6588 44.7821 20.4593C44.6774 20.2522 44.5616 20.0516 44.4458 19.851C38.5188 9.58521 25.4029 6.0708 15.1371 11.9978C4.87132 17.9247 1.35692 31.0406 7.28387 41.3064C7.3997 41.507 7.51554 41.7077 7.64252 41.9019C2.1997 31.7281 5.76697 19.0127 15.8321 13.2016Z" fill="#E99697"/>
<path d="M34.34 45.2582C42.4535 40.5739 45.2334 30.1991 40.5491 22.0856C35.8647 13.972 25.49 11.1921 17.3764 15.8765C9.26287 20.5609 6.48297 30.9356 11.1673 39.0491C15.8517 47.1627 26.2264 49.9426 34.34 45.2582Z" fill="#FBE3D5"/>
<path d="M33.2914 43.4415C25.489 47.9462 15.5885 45.5477 10.6799 38.1271C10.8314 38.4409 10.994 38.7483 11.1677 39.0492C15.8527 47.1637 26.2259 49.9432 34.3404 45.2583C42.4549 40.5734 45.2344 30.2002 40.5495 22.0857C40.3757 21.7847 40.1908 21.4902 39.9948 21.2021C43.967 29.1634 41.0939 38.9367 33.2914 43.4415Z" fill="#FFF4EE"/>
<path d="M18.464 17.7602C26.2553 13.2619 36.1382 15.6557 41.0562 23.0412C40.8983 22.7162 40.7293 22.3977 40.5491 22.0856C35.8641 13.9711 25.491 11.1916 17.3764 15.8765C9.26188 20.5614 6.4824 30.9346 11.1673 39.0491C11.3475 39.3612 11.5389 39.6669 11.7413 39.9661C7.80426 32.0143 10.6727 22.2585 18.464 17.7602Z" fill="#F9D1BD"/>
<path fill-rule="evenodd" clip-rule="evenodd" d="M25.5615 29.8728C25.7541 29.7616 26.0003 29.8276 26.1114 30.0202L29.3034 35.5488C29.4145 35.7413 29.3486 35.9875 29.156 36.0987C28.9635 36.2098 28.7173 36.1439 28.6061 35.9513L25.4142 30.4227C25.303 30.2302 25.369 29.984 25.5615 29.8728Z" fill="black"/>
<path fill-rule="evenodd" clip-rule="evenodd" d="M20.8252 21.6691C21.0177 21.5579 21.264 21.6239 21.3751 21.8164L26.1115 30.0201C26.2227 30.2127 26.1567 30.4589 25.9642 30.5701C25.7716 30.6812 25.5254 30.6152 25.4143 30.4227L20.6778 22.219C20.5667 22.0265 20.6327 21.7802 20.8252 21.6691Z" fill="black"/>
<path fill-rule="evenodd" clip-rule="evenodd" d="M17.5778 16.2251C9.65682 20.7983 6.94289 30.9269 11.5161 38.8479C16.0893 46.7689 26.2178 49.4828 34.1388 44.9096C42.0598 40.3364 44.7737 30.2079 40.2006 22.2869C35.6274 14.3659 25.4988 11.652 17.5778 16.2251ZM10.8188 39.2504C6.02328 30.9444 8.86916 20.3234 17.1752 15.5279C25.4813 10.7324 36.1023 13.5782 40.8978 21.8843C45.6933 30.1904 42.8475 40.8114 34.5414 45.6069C26.2353 50.4024 15.6143 47.5565 10.8188 39.2504Z" fill="black"/>
<path fill-rule="evenodd" clip-rule="evenodd" d="M17.5049 15.9176C17.6974 15.8064 17.9436 15.8724 18.0548 16.065L19.7344 18.9742C19.8456 19.1667 19.7796 19.4129 19.5871 19.5241C19.3945 19.6352 19.1483 19.5693 19.0372 19.3767L17.3575 16.4675C17.2464 16.275 17.3123 16.0288 17.5049 15.9176Z" fill="black"/>
<path fill-rule="evenodd" clip-rule="evenodd" d="M32.293 41.5321C32.4855 41.4209 32.7317 41.4869 32.8429 41.6795L34.5225 44.5887C34.6337 44.7812 34.5677 45.0274 34.3752 45.1386C34.1826 45.2497 33.9364 45.1838 33.8252 44.9912L32.1456 42.082C32.0345 41.8895 32.1004 41.6433 32.293 41.5321Z" fill="black"/>
<path fill-rule="evenodd" clip-rule="evenodd" d="M36.9459 24.166C36.8347 23.9735 36.9007 23.7273 37.0933 23.6161L39.9913 21.9429C40.1839 21.8317 40.4301 21.8977 40.5412 22.0903C40.6524 22.2828 40.5864 22.529 40.3939 22.6402L37.4958 24.3134C37.3033 24.4245 37.0571 24.3586 36.9459 24.166Z" fill="black"/>
<path fill-rule="evenodd" clip-rule="evenodd" d="M11.3317 38.9545C11.2205 38.7619 11.2865 38.5157 11.479 38.4045L14.3771 36.7314C14.5696 36.6202 14.8158 36.6862 14.927 36.8787C15.0381 37.0713 14.9722 37.3175 14.7796 37.4286L11.8816 39.1018C11.689 39.213 11.4428 39.147 11.3317 38.9545Z" fill="black"/>
<path fill-rule="evenodd" clip-rule="evenodd" d="M30.4106 13.8171C30.6256 13.8735 30.7542 14.0936 30.6977 14.3087L30.2472 16.0252C30.1908 16.2403 29.9707 16.3689 29.7556 16.3124C29.5406 16.256 29.412 16.0359 29.4684 15.8208L29.919 14.1043C29.9754 13.8892 30.1955 13.7606 30.4106 13.8171Z" fill="black"/>
<path fill-rule="evenodd" clip-rule="evenodd" d="M22.124 44.7433C22.339 44.7998 22.4675 45.0199 22.411 45.2349L21.9275 47.0746C21.871 47.2896 21.6508 47.4181 21.4358 47.3616C21.2208 47.3051 21.0923 47.085 21.1488 46.8699L21.6323 45.0303C21.6888 44.8153 21.9089 44.6868 22.124 44.7433Z" fill="black"/>
<path fill-rule="evenodd" clip-rule="evenodd" d="M40.1581 34.333C40.2157 34.1182 40.4364 33.9907 40.6512 34.0483L42.3566 34.5053C42.5714 34.5628 42.6988 34.7835 42.6413 34.9983C42.5837 35.2131 42.363 35.3405 42.1482 35.283L40.4428 34.826C40.228 34.7685 40.1006 34.5477 40.1581 34.333Z" fill="black"/>
<path fill-rule="evenodd" clip-rule="evenodd" d="M9.10932 26.0115C9.1679 25.797 9.38925 25.6706 9.60373 25.7292L11.4387 26.2303C11.6531 26.2889 11.7795 26.5102 11.721 26.7247C11.6624 26.9392 11.441 27.0656 11.2266 27.007L9.39162 26.5059C9.17714 26.4473 9.05075 26.226 9.10932 26.0115Z" fill="black"/>
<path d="M26.6315 31.7262C27.4625 31.2464 27.7473 30.1837 27.2674 29.3527C26.7876 28.5216 25.725 28.2369 24.8939 28.7167C24.0629 29.1965 23.7781 30.2592 24.2579 31.0902C24.7377 31.9213 25.8004 32.206 26.6315 31.7262Z" fill="#FBE3D5"/>
<path fill-rule="evenodd" clip-rule="evenodd" d="M25.0953 29.0652C24.4568 29.4338 24.238 30.2503 24.6067 30.8888C24.9753 31.5273 25.7918 31.7461 26.4303 31.3774C27.0688 31.0088 27.2876 30.1923 26.9189 29.5538C26.5503 28.9153 25.7338 28.6966 25.0953 29.0652ZM23.9094 31.2914C23.3184 30.2678 23.6691 28.9589 24.6927 28.3679C25.7163 27.777 27.0252 28.1277 27.6162 29.1513C28.2072 30.1749 27.8565 31.4837 26.8329 32.0747C25.8093 32.6657 24.5004 32.315 23.9094 31.2914Z" fill="black"/>
<path d="M29.5534 36.7865C30.1259 36.456 30.3221 35.7239 29.9915 35.1514C29.661 34.5789 28.9289 34.3827 28.3564 34.7133C27.7839 35.0438 27.5878 35.7759 27.9183 36.3484C28.2488 36.9209 28.9809 37.117 29.5534 36.7865Z" fill="#FBE3D5"/>
<path fill-rule="evenodd" clip-rule="evenodd" d="M28.5573 35.0621C28.1774 35.2814 28.0472 35.7673 28.2666 36.1472C28.4859 36.5272 28.9718 36.6574 29.3517 36.438C29.7317 36.2186 29.8619 35.7328 29.6425 35.3528C29.4231 34.9729 28.9373 34.8427 28.5573 35.0621ZM27.5693 36.5498C27.1276 35.7847 27.3897 34.8065 28.1548 34.3648C28.9198 33.9231 29.8981 34.1852 30.3398 34.9503C30.7815 35.7153 30.5194 36.6936 29.7543 37.1353C28.9893 37.577 28.011 37.3148 27.5693 36.5498Z" fill="black"/>
<path fill-rule="evenodd" clip-rule="evenodd" d="M15.3321 12.3352C5.26272 18.1488 1.81268 31.0245 7.62627 41.0939C13.4399 51.1633 26.3156 54.6134 36.385 48.7998C46.4544 42.9862 49.9045 30.1105 44.0909 20.041C38.2773 9.97162 25.4016 6.52158 15.3321 12.3352ZM6.929 41.4965C0.893079 31.042 4.47506 17.6738 14.9296 11.6379C25.3841 5.60198 38.7522 9.18396 44.7882 19.6385C50.8241 30.093 47.2421 43.4611 36.7876 49.4971C26.3331 55.533 12.9649 51.951 6.929 41.4965Z" fill="black"/>
</g>
<defs>
<clipPath id="clip0">
<rect width="52" height="53" fill="white"/>
</clipPath>
</defs>
</svg>
