<svg width="134" height="118" viewBox="0 0 134 118" fill="none" xmlns="http://www.w3.org/2000/svg">
<path d="M62.8167 108.83L64.7922 97.5263L48.608 93.1897L44.6668 103.967C43.7527 106.461 41.5546 108.506 38.6035 109.822L38.5947 109.854L65.1316 116.965L65.1404 116.932C63.2427 114.317 62.3613 111.447 62.8167 108.83Z" fill="#BFCFE2"/>
<path opacity="0.28" d="M48.6083 93.1895L46.2453 99.6493L63.609 104.302L64.7925 97.5261L48.6083 93.1895Z" fill="#1F3969"/>
<path opacity="0.28" fill-rule="evenodd" clip-rule="evenodd" d="M48.1738 93.0307C48.2561 92.8057 48.4965 92.6808 48.7279 92.7428L64.9121 97.0794C65.1435 97.1414 65.2893 97.3698 65.2481 97.6058L64.0646 104.382C64.0422 104.51 63.9672 104.622 63.8578 104.692C63.7483 104.762 63.6146 104.782 63.4892 104.749L46.1255 100.096C46.0001 100.063 45.8946 99.9779 45.8348 99.8627C45.7749 99.7475 45.7662 99.6125 45.8108 99.4906L48.1738 93.0307ZM48.8973 93.746L46.8534 99.3335L63.2402 103.724L64.2639 97.8635L48.8973 93.746Z" fill="#1F3969"/>
<path fill-rule="evenodd" clip-rule="evenodd" d="M48.1735 93.0306C48.2558 92.8056 48.4962 92.6807 48.7276 92.7427L64.9118 97.0792C65.1433 97.1412 65.289 97.3697 65.2478 97.6057L63.2724 108.909C63.2723 108.909 63.2724 108.909 63.2724 108.909C62.8446 111.368 63.6669 114.114 65.5147 116.66C65.5966 116.773 65.6232 116.917 65.5871 117.052L65.5784 117.084C65.5122 117.331 65.2586 117.478 65.0118 117.411L38.4749 110.301C38.2282 110.235 38.0817 109.981 38.1478 109.734L38.1566 109.702C38.1927 109.567 38.2877 109.456 38.415 109.399C41.2888 108.117 43.3735 106.151 44.2324 103.808L48.1735 93.0306ZM48.897 93.7458L45.1012 104.126C44.2501 106.448 42.3639 108.368 39.8662 109.716L64.0994 116.209C62.6104 113.793 61.9369 111.187 62.3609 108.751L64.2636 97.8633L48.897 93.7458Z" fill="#1F3969"/>
<path d="M108.024 110.866L4.49782 83.126C2.33555 82.5466 1.04046 80.3035 1.61984 78.1412L19.7034 10.6523C20.2828 8.49007 22.526 7.19498 24.6882 7.77436L128.215 35.5142C130.377 36.0936 131.672 38.3368 131.093 40.499L113.009 107.988C112.421 110.183 110.187 111.445 108.024 110.866Z" fill="white"/>
<path d="M108.024 110.866L4.49782 83.126C2.33555 82.5466 1.04046 80.3035 1.61984 78.1412L19.7034 10.6523C20.2828 8.49007 22.526 7.19498 24.6882 7.77436L128.215 35.5142C130.377 36.0936 131.672 38.3368 131.093 40.499L113.009 107.988C112.421 110.183 110.187 111.445 108.024 110.866Z" fill="#BFCFE2"/>
<path fill-rule="evenodd" clip-rule="evenodd" d="M24.5684 8.2213C22.6529 7.70805 20.6634 8.8567 20.1502 10.7722L2.06659 78.261C1.55334 80.1765 2.70198 82.1661 4.61748 82.6793L108.144 110.419C110.062 110.933 112.041 109.814 112.562 107.868L130.646 40.3794C131.159 38.4639 130.011 36.4744 128.095 35.9612L24.5684 8.2213ZM19.2566 10.5327C19.902 8.12371 22.3989 6.68218 24.8079 7.32768L128.334 35.0675C130.744 35.713 132.185 38.2099 131.54 40.6189L113.456 108.108C112.801 110.552 110.311 111.958 107.905 111.313L4.37803 83.5729C1.969 82.9274 0.527467 80.4306 1.17297 78.0216L19.2566 10.5327Z" fill="#1F3969"/>
<path d="M109.773 97.8608L125.101 40.6591L24.8502 13.797L9.52301 70.9988L109.773 97.8608Z" fill="#F6F9FD"/>
<path opacity="0.28" d="M29.9302 9.17883L17.7633 54.5864C17.377 56.0279 18.2404 57.5233 19.6819 57.9096L81.6341 74.5096C83.0756 74.8959 84.571 74.0325 84.9573 72.591L97.1242 27.1834L29.9302 9.17883Z" fill="#1F3969"/>
<path opacity="0.28" fill-rule="evenodd" clip-rule="evenodd" d="M29.4833 9.05924C29.5494 8.81247 29.8031 8.66603 30.0498 8.73215L97.2439 26.7367C97.4906 26.8029 97.6371 27.0565 97.5709 27.3033L85.404 72.7108C84.9516 74.3991 83.2026 75.4089 81.5143 74.9566L19.5621 58.3565C17.8738 57.9042 16.864 56.1551 17.3164 54.4668L29.4833 9.05924ZM30.2572 9.7455L18.21 54.7063C17.8899 55.901 18.6068 57.1428 19.8016 57.4629L81.7537 74.0629C82.9485 74.3831 84.1903 73.6661 84.5104 72.4714L96.5576 27.5106L30.2572 9.7455Z" fill="#1F3969"/>
<path fill-rule="evenodd" clip-rule="evenodd" d="M125.22 40.2119C125.467 40.2781 125.613 40.5317 125.547 40.7785L110.22 97.9802C110.154 98.227 109.9 98.3734 109.654 98.3073L9.40316 71.4453C9.15639 71.3791 9.00995 71.1255 9.07607 70.8787L24.4032 13.677C24.4693 13.4302 24.723 13.2838 24.9698 13.3499L125.22 40.2119ZM124.534 40.9858L25.1771 14.3633L10.0894 70.6714L109.446 97.2939L124.534 40.9858Z" fill="#1F3969"/>
<path fill-rule="evenodd" clip-rule="evenodd" d="M53.1186 89.3767C53.1847 89.13 53.4383 88.9835 53.6851 89.0497L62.498 91.4111C62.7447 91.4772 62.8912 91.7308 62.8251 91.9776C62.7589 92.2244 62.5053 92.3708 62.2585 92.3047L53.4456 89.9433C53.1989 89.8772 53.0524 89.6235 53.1186 89.3767Z" fill="#1F3969"/>
<path d="M85.548 71.6961L23.5959 55.096C22.1544 54.7098 21.291 53.2143 21.6772 51.7728L34.6869 3.22017C35.0731 1.77866 36.5686 0.915267 38.0101 1.30152L99.9622 17.9015C101.404 18.2878 102.267 19.7832 101.881 21.2247L88.8625 69.8102C88.4762 71.2517 86.9896 72.0823 85.548 71.6961Z" fill="#2D425E"/>
<path fill-rule="evenodd" clip-rule="evenodd" d="M37.8996 1.71563C36.7048 1.3955 35.463 2.11245 35.1429 3.30719L34.2531 6.62795L100.554 24.3931L101.443 21.0723C101.763 19.8776 101.046 18.6358 99.8517 18.3157L37.8996 1.71563ZM34.2493 3.06774C34.7017 1.37946 36.4508 0.369626 38.139 0.821999L100.091 17.422C101.779 17.8744 102.789 19.6235 102.337 21.3118L101.327 25.0793C101.261 25.3261 101.008 25.4726 100.761 25.4064L33.5669 7.40186C33.3201 7.33574 33.1736 7.08209 33.2398 6.83532L34.2493 3.06774Z" fill="#1F3969"/>
<path d="M100.547 26.2044L33.3526 8.19985L34.6957 3.18733C35.0819 1.74582 36.5774 0.88243 38.0189 1.26868L99.971 17.8687C101.413 18.255 102.276 19.7504 101.89 21.1919L100.547 26.2044Z" fill="#D0DDF0"/>
<path fill-rule="evenodd" clip-rule="evenodd" d="M37.8996 1.71563C36.7048 1.3955 35.463 2.11245 35.1429 3.30719L33.9195 7.87289L100.22 25.638L101.443 21.0723C101.763 19.8776 101.046 18.6358 99.8517 18.3157L37.8996 1.71563ZM34.2493 3.06774C34.7017 1.37946 36.4508 0.369626 38.139 0.821999L100.091 17.422C101.779 17.8744 102.789 19.6235 102.337 21.3118L100.994 26.3243C100.928 26.5711 100.674 26.7175 100.427 26.6514L33.2333 8.6468C32.9865 8.58067 32.8401 8.32703 32.9062 8.08026L34.2493 3.06774Z" fill="#1F3969"/>
<path fill-rule="evenodd" clip-rule="evenodd" d="M37.8996 1.71563C36.7048 1.3955 35.463 2.11245 35.1429 3.30719L33.9195 7.87289L100.22 25.638L101.443 21.0723C101.763 19.8776 101.046 18.6358 99.8517 18.3157L37.8996 1.71563ZM34.2493 3.06774C34.7017 1.37946 36.4508 0.369626 38.139 0.821999L100.091 17.422C101.779 17.8744 102.789 19.6235 102.337 21.3118L100.994 26.3243C100.928 26.5711 100.674 26.7175 100.427 26.6514L33.2333 8.6468C32.9865 8.58067 32.8401 8.32703 32.9062 8.08026L34.2493 3.06774Z" fill="#1F3969"/>
<path fill-rule="evenodd" clip-rule="evenodd" d="M37.8903 1.74846C36.6956 1.42833 35.4538 2.14528 35.1336 3.34002L22.124 51.8927C21.8039 53.0874 22.5208 54.3292 23.7156 54.6493L85.6677 71.2494C86.8698 71.5715 88.0974 70.878 88.4156 69.6906L101.434 21.1052C101.754 19.9104 101.037 18.6686 99.8425 18.3485L37.8903 1.74846ZM34.24 3.10058C34.6924 1.4123 36.4415 0.402463 38.1298 0.854835L100.082 17.4549C101.77 17.9072 102.78 19.6563 102.328 21.3446L89.3092 69.93C88.8549 71.6256 87.1092 72.5934 85.4283 72.143L23.4761 55.543C21.7878 55.0906 20.778 53.3415 21.2304 51.6532L34.24 3.10058Z" fill="#1F3969"/>
<path opacity="0.28" d="M114.776 91.9577L76.7729 81.7748C75.3314 81.3885 74.468 79.8931 74.8542 78.4516L85.6429 38.1876C86.0292 36.7461 87.5246 35.8827 88.9661 36.2689L126.97 46.4519C128.411 46.8382 129.274 48.3336 128.888 49.7751L118.1 90.0391C117.704 91.5134 116.218 92.344 114.776 91.9577Z" fill="#1F3969"/>
<path opacity="0.28" fill-rule="evenodd" clip-rule="evenodd" d="M88.8464 36.7159C87.6516 36.3957 86.4098 37.1127 86.0897 38.3074L75.301 78.5714C74.9809 79.7662 75.6978 81.0079 76.8926 81.3281L114.896 91.5111C116.094 91.8322 117.325 91.1434 117.653 89.9195L128.441 49.6555C128.761 48.4608 128.045 47.219 126.85 46.8989L88.8464 36.7159ZM85.1961 38.068C85.6484 36.3797 87.3975 35.3699 89.0858 35.8222L127.089 46.0052C128.778 46.4576 129.787 48.2067 129.335 49.895L118.546 90.1589C118.084 91.8836 116.341 92.8561 114.657 92.4047L76.6531 82.2217C74.9648 81.7693 73.955 80.0202 74.4074 78.332L85.1961 38.068Z" fill="#1F3969"/>
<path d="M118.012 90.3667L80.0082 80.1837C78.5667 79.7974 77.7033 78.302 78.0896 76.8605L88.8783 36.5965C89.2645 35.155 90.76 34.2916 92.2015 34.6779L130.205 44.8609C131.646 45.2471 132.51 46.7425 132.124 48.1841L121.335 88.448C120.94 89.9223 119.453 90.7529 118.012 90.3667Z" fill="#2AA1FF"/>
<path fill-rule="evenodd" clip-rule="evenodd" d="M92.0817 35.1248C90.887 34.8047 89.6452 35.5216 89.325 36.7164L78.5363 76.9803C78.2162 78.1751 78.9332 79.4169 80.1279 79.737L118.131 89.92C119.33 90.2411 120.56 89.5523 120.888 88.3284L131.677 48.0645C131.997 46.8697 131.28 45.6279 130.085 45.3078L92.0817 35.1248ZM88.4314 36.4769C88.8838 34.7886 90.6329 33.7788 92.3212 34.2312L130.325 44.4142C132.013 44.8665 133.023 46.6156 132.57 48.3039L121.782 88.5679C121.32 90.2926 119.577 91.265 117.892 90.8136L79.8885 80.6306C78.2002 80.1783 77.1903 78.4292 77.6427 76.7409L88.4314 36.4769Z" fill="#1F3969"/>
<path opacity="0.34" fill-rule="evenodd" clip-rule="evenodd" d="M95.9373 43.1456C95.234 42.9572 94.5322 43.3623 94.3438 44.0656L93.6591 46.621C93.4706 47.3244 93.8758 48.0261 94.5791 48.2146L121.313 55.3778C122.016 55.5663 122.718 55.1611 122.906 54.4578L123.591 51.9024C123.779 51.199 123.374 50.4973 122.671 50.3088L95.9373 43.1456ZM93.4502 43.8262C93.7709 42.6293 94.9799 41.9313 96.1768 42.252L122.91 49.4152C124.107 49.7359 124.805 50.945 124.484 52.1418L123.8 54.6972C123.479 55.8941 122.27 56.5921 121.073 56.2714L94.3397 49.1082C93.1428 48.7875 92.4448 47.5785 92.7654 46.3816L93.4502 43.8262Z" fill="white"/>
<path opacity="0.34" fill-rule="evenodd" clip-rule="evenodd" d="M93.4305 52.7621C92.7272 52.5736 92.0254 52.9788 91.837 53.6821L91.1522 56.2375C90.9638 56.9408 91.369 57.6426 92.0723 57.831L107.012 61.834C107.672 62.0109 108.386 61.6184 108.607 60.9058L109.29 58.3586C109.478 57.6553 109.073 56.9535 108.37 56.765L93.4305 52.7621ZM90.9433 53.4426C91.264 52.2458 92.4731 51.5477 93.67 51.8684L108.609 55.8714C109.806 56.1921 110.504 57.4012 110.183 58.598L109.499 61.1534C109.497 61.1586 109.496 61.1637 109.494 61.1688C109.139 62.3342 107.944 63.0417 106.772 62.7276L91.8328 58.7247C90.636 58.404 89.9379 57.1949 90.2586 55.9981L90.9433 53.4426Z" fill="white"/>
<path opacity="0.34" fill-rule="evenodd" clip-rule="evenodd" d="M114.332 58.3629C113.629 58.1744 112.927 58.5796 112.739 59.2829L112.054 61.8383C111.866 62.5416 112.271 63.2434 112.974 63.4319L118.773 64.9857C119.476 65.1741 120.178 64.7689 120.366 64.0656L121.051 61.5102C121.24 60.8069 120.834 60.1051 120.131 59.9167L114.332 58.3629ZM111.845 59.0435C112.166 57.8466 113.375 57.1486 114.572 57.4693L120.371 59.0231C121.567 59.3437 122.266 60.5528 121.945 61.7497L121.26 64.3051C120.939 65.5019 119.73 66.2 118.533 65.8793L112.735 64.3255C111.538 64.0048 110.84 62.7957 111.16 61.5989L111.845 59.0435Z" fill="white"/>
<path fill-rule="evenodd" clip-rule="evenodd" d="M87.1005 67.6527C87.1666 67.406 87.4203 67.2595 87.667 67.3257L117.775 75.393C118.022 75.4592 118.168 75.7128 118.102 75.9596C118.036 76.2063 117.782 76.3528 117.535 76.2867L87.4276 68.2193C87.1808 68.1532 87.0344 67.8995 87.1005 67.6527Z" fill="white"/>
<path fill-rule="evenodd" clip-rule="evenodd" d="M86.1522 71.1908C86.2184 70.9441 86.472 70.7976 86.7188 70.8637L116.827 78.9311C117.073 78.9972 117.22 79.2509 117.154 79.4977C117.088 79.7444 116.834 79.8909 116.587 79.8248L86.4793 71.7574C86.2326 71.6912 86.0861 71.4376 86.1522 71.1908Z" fill="white"/>
<path fill-rule="evenodd" clip-rule="evenodd" d="M85.2045 74.7293C85.2706 74.4825 85.5243 74.3361 85.771 74.4022L104.118 79.3181C104.364 79.3842 104.511 79.6379 104.445 79.8847C104.378 80.1314 104.125 80.2779 103.878 80.2117L85.5316 75.2958C85.2848 75.2297 85.1384 74.9761 85.2045 74.7293Z" fill="white"/>
<path d="M40.6053 7.47463C41.329 7.66856 42.0729 7.23905 42.2669 6.5153C42.4608 5.79155 42.0313 5.04763 41.3075 4.8537C40.5838 4.65977 39.8399 5.08928 39.6459 5.81303C39.452 6.53678 39.8815 7.2807 40.6053 7.47463Z" fill="#1F3969"/>
<path d="M45.159 8.69448C45.8827 8.8884 46.6266 8.4589 46.8206 7.73515C47.0145 7.0114 46.585 6.26748 45.8612 6.07355C45.1375 5.87962 44.3936 6.30913 44.1996 7.03288C44.0057 7.75662 44.4352 8.50055 45.159 8.69448Z" fill="#1F3969"/>
<path d="M49.7127 9.91481C50.4364 10.1087 51.1804 9.67924 51.3743 8.95549C51.5682 8.23174 51.1387 7.48781 50.415 7.29389C49.6912 7.09996 48.9473 7.52946 48.7534 8.25321C48.5594 8.97696 48.9889 9.72089 49.7127 9.91481Z" fill="#1F3969"/>
<path fill-rule="evenodd" clip-rule="evenodd" d="M69.8754 24.482C69.9415 24.2352 70.1952 24.0888 70.4419 24.1549L74.7009 25.2961C74.9477 25.3622 75.0941 25.6158 75.028 25.8626C74.9619 26.1094 74.7083 26.2558 74.4615 26.1897L70.2025 25.0485C69.9557 24.9824 69.8093 24.7287 69.8754 24.482Z" fill="white"/>
<path fill-rule="evenodd" clip-rule="evenodd" d="M48.2856 18.6972C48.3517 18.4504 48.6053 18.304 48.8521 18.3701L67.2969 23.3124C67.5436 23.3785 67.6901 23.6321 67.624 23.8789C67.5578 24.1257 67.3042 24.2721 67.0574 24.206L48.6126 19.2637C48.3659 19.1976 48.2194 18.9439 48.2856 18.6972Z" fill="#7BFFA0"/>
<path fill-rule="evenodd" clip-rule="evenodd" d="M39.1776 16.257C39.2438 16.0102 39.4974 15.8638 39.7442 15.9299L46.231 17.668C46.4777 17.7342 46.6242 17.9878 46.5581 18.2346C46.4919 18.4813 46.2383 18.6278 45.9915 18.5617L39.5047 16.8235C39.258 16.7574 39.1115 16.5038 39.1776 16.257Z" fill="#9169FF"/>
<path fill-rule="evenodd" clip-rule="evenodd" d="M38.9828 50.7914C39.0489 50.5446 39.3026 50.3982 39.5494 50.4643L53.6368 54.2391C53.8836 54.3052 54.03 54.5588 53.9639 54.8056C53.8978 55.0524 53.6442 55.1988 53.3974 55.1327L39.3099 51.358C39.0631 51.2918 38.9167 51.0382 38.9828 50.7914Z" fill="#9169FF"/>
<path fill-rule="evenodd" clip-rule="evenodd" d="M30.5307 48.5266C30.5968 48.2799 30.8504 48.1334 31.0972 48.1996L35.6511 49.4198C35.8978 49.4859 36.0443 49.7395 35.9782 49.9863C35.912 50.2331 35.6584 50.3795 35.4116 50.3134L30.8578 49.0932C30.611 49.0271 30.4645 48.7734 30.5307 48.5266Z" fill="#7BFFA0"/>
<path fill-rule="evenodd" clip-rule="evenodd" d="M65.6503 27.669C65.7164 27.4222 65.9701 27.2758 66.2168 27.3419L68.8705 28.0529C69.1173 28.1191 69.2637 28.3727 69.1976 28.6195C69.1315 28.8663 68.8778 29.0127 68.6311 28.9466L65.9774 28.2355C65.7306 28.1694 65.5842 27.9158 65.6503 27.669Z" fill="white"/>
<path fill-rule="evenodd" clip-rule="evenodd" d="M53.5941 24.4385C53.6603 24.1917 53.9139 24.0453 54.1607 24.1114L63.0718 26.4992C63.3186 26.5653 63.465 26.8189 63.3989 27.0657C63.3328 27.3125 63.0792 27.4589 62.8324 27.3928L53.9212 25.005C53.6745 24.9389 53.528 24.6853 53.5941 24.4385Z" fill="#9169FF"/>
<path fill-rule="evenodd" clip-rule="evenodd" d="M41.3407 21.1559C41.4068 20.9092 41.6605 20.7627 41.9073 20.8288L50.9822 23.2605C51.229 23.3266 51.3754 23.5802 51.3093 23.827C51.2432 24.0738 50.9895 24.2202 50.7428 24.1541L41.6678 21.7225C41.421 21.6563 41.2746 21.4027 41.3407 21.1559Z" fill="#FFC47D"/>
<path fill-rule="evenodd" clip-rule="evenodd" d="M54.3163 28.9507C54.3824 28.704 54.6361 28.5575 54.8828 28.6236L62.7129 30.7217C62.9596 30.7878 63.1061 31.0414 63.04 31.2882C62.9738 31.535 62.7202 31.6814 62.4734 31.6153L54.6434 29.5173C54.3966 29.4511 54.2502 29.1975 54.3163 28.9507Z" fill="white"/>
<path fill-rule="evenodd" clip-rule="evenodd" d="M44.4877 26.3174C44.5538 26.0707 44.8075 25.9242 45.0542 25.9903L52.4256 27.9655C52.6724 28.0316 52.8188 28.2852 52.7527 28.532C52.6866 28.7788 52.4329 28.9252 52.1861 28.8591L44.8148 26.884C44.568 26.8178 44.4216 26.5642 44.4877 26.3174Z" fill="#FF5757"/>
<path fill-rule="evenodd" clip-rule="evenodd" d="M54.2846 33.2619C54.3507 33.0151 54.6043 32.8687 54.8511 32.9348L56.4564 33.3649C56.7032 33.4311 56.8496 33.6847 56.7835 33.9315C56.7174 34.1782 56.4637 34.3247 56.217 34.2586L54.6117 33.8284C54.3649 33.7623 54.2185 33.5086 54.2846 33.2619Z" fill="white"/>
<path fill-rule="evenodd" clip-rule="evenodd" d="M47.7978 31.524C47.8639 31.2772 48.1175 31.1308 48.3643 31.1969L52.0008 32.1713C52.2476 32.2374 52.394 32.491 52.3279 32.7378C52.2618 32.9846 52.0081 33.131 51.7614 33.0649L48.1248 32.0905C47.8781 32.0244 47.7316 31.7707 47.7978 31.524Z" fill="#9169FF"/>
<path fill-rule="evenodd" clip-rule="evenodd" d="M39.1815 29.2155C39.2477 28.9687 39.5013 28.8223 39.7481 28.8884L45.6124 30.4597C45.8592 30.5259 46.0056 30.7795 45.9395 31.0263C45.8734 31.273 45.6197 31.4195 45.373 31.3534L39.5086 29.782C39.2619 29.7159 39.1154 29.4623 39.1815 29.2155Z" fill="#7BFFA0"/>
<path fill-rule="evenodd" clip-rule="evenodd" d="M50.6737 36.6485C50.7399 36.4017 50.9935 36.2553 51.2403 36.3214L61.6912 39.1217C61.938 39.1878 62.0844 39.4415 62.0183 39.6882C61.9522 39.935 61.6985 40.0815 61.4518 40.0153L51.0008 37.215C50.7541 37.1489 50.6076 36.8952 50.6737 36.6485Z" fill="#FFC47D"/>
<path fill-rule="evenodd" clip-rule="evenodd" d="M38.0932 33.2779C38.1593 33.0311 38.4129 32.8847 38.6597 32.9508L48.0295 35.4614C48.2763 35.5275 48.4227 35.7812 48.3566 36.0279C48.2905 36.2747 48.0368 36.4212 47.7901 36.355L38.4203 33.8444C38.1735 33.7783 38.027 33.5246 38.0932 33.2779Z" fill="#FF5757"/>
<path fill-rule="evenodd" clip-rule="evenodd" d="M61.6825 43.9173C61.7486 43.6705 62.0023 43.5241 62.2491 43.5902L67.9168 45.1089C68.1636 45.175 68.31 45.4286 68.2439 45.6754C68.1778 45.9222 67.9241 46.0686 67.6774 46.0025L62.0096 44.4838C61.7628 44.4177 61.6164 44.164 61.6825 43.9173Z" fill="#9169FF"/>
<path fill-rule="evenodd" clip-rule="evenodd" d="M49.5937 40.678C49.6598 40.4312 49.9134 40.2848 50.1602 40.3509L59.2352 42.7826C59.4819 42.8487 59.6284 43.1023 59.5622 43.3491C59.4961 43.5959 59.2425 43.7423 58.9957 43.6762L49.9207 41.2446C49.674 41.1784 49.5275 40.9248 49.5937 40.678Z" fill="#FF5757"/>
<path fill-rule="evenodd" clip-rule="evenodd" d="M41.2397 38.4394C41.3058 38.1926 41.5594 38.0462 41.8062 38.1123L46.9498 39.4905C47.1965 39.5566 47.343 39.8103 47.2769 40.057C47.2107 40.3038 46.9571 40.4502 46.7103 40.3841L41.5667 39.0059C41.32 38.9398 41.1735 38.6861 41.2397 38.4394Z" fill="#7BFFA0"/>
<path fill-rule="evenodd" clip-rule="evenodd" d="M52.6425 45.8134C52.7086 45.5666 52.9623 45.4202 53.209 45.4863L58.156 46.8118C58.4028 46.878 58.5492 47.1316 58.4831 47.3784C58.417 47.6252 58.1633 47.7716 57.9166 47.7055L52.9696 46.3799C52.7228 46.3138 52.5764 46.0602 52.6425 45.8134Z" fill="white"/>
<path fill-rule="evenodd" clip-rule="evenodd" d="M40.1601 42.4689C40.2262 42.2221 40.4798 42.0757 40.7266 42.1418L49.8016 44.5734C50.0483 44.6396 50.1948 44.8932 50.1287 45.14C50.0625 45.3868 49.8089 45.5332 49.5621 45.4671L40.4872 43.0354C40.2404 42.9693 40.0939 42.7157 40.1601 42.4689Z" fill="#9169FF"/>
<path fill-rule="evenodd" clip-rule="evenodd" d="M64.4374 53.293C64.5035 53.0462 64.7572 52.8998 65.0039 52.9659L70.6717 54.4846C70.9185 54.5507 71.0649 54.8044 70.9988 55.0511C70.9327 55.2979 70.679 55.4443 70.4322 55.3782L64.7645 53.8595C64.5177 53.7934 64.3713 53.5398 64.4374 53.293Z" fill="white"/>
<path fill-rule="evenodd" clip-rule="evenodd" d="M47.1064 48.6491C47.1725 48.4023 47.4261 48.2559 47.6729 48.322L61.9242 52.1406C62.1709 52.2067 62.3174 52.4604 62.2513 52.7072C62.1851 52.9539 61.9315 53.1004 61.6847 53.0342L47.4334 49.2156C47.1867 49.1495 47.0402 48.8959 47.1064 48.6491Z" fill="#FFC47D"/>
<path fill-rule="evenodd" clip-rule="evenodd" d="M34.8539 45.366C34.92 45.1192 35.1737 44.9728 35.4204 45.0389L44.4954 47.4705C44.7422 47.5367 44.8886 47.7903 44.8225 48.0371C44.7564 48.2838 44.5027 48.4303 44.256 48.3642L35.181 45.9325C34.9342 45.8664 34.7878 45.6128 34.8539 45.366Z" fill="white"/>
</svg>
