<svg width="129" height="122" viewBox="0 0 129 122" fill="none" xmlns="http://www.w3.org/2000/svg">
<g filter="url(#filter0_f)">
<path d="M66.4053 84.2489L122.472 46.2769L104.148 19.221L48.0813 57.1931L66.4053 84.2489Z" fill="#77BA85"/>
<path fill-rule="evenodd" clip-rule="evenodd" d="M123.507 45.5764C123.894 46.1478 123.744 46.9247 123.173 47.3116L67.1061 85.2837C66.5348 85.6706 65.7579 85.5211 65.3709 84.9498L47.047 57.8939C46.66 57.3226 46.8095 56.5457 47.3809 56.1588L103.448 18.1867C104.019 17.7997 104.796 17.9492 105.183 18.5206L123.507 45.5764ZM120.737 45.9432L103.815 20.9564L49.8167 57.5272L66.7393 82.514L120.737 45.9432Z" fill="#474747"/>
<path d="M113.151 39.1682L107.289 30.5049C103.922 32.7968 99.3497 31.9055 97.0577 28.538L53.2993 58.1634L67.4258 79.0254L111.184 49.3999C108.892 46.0324 109.764 41.449 113.151 39.1682Z" fill="#F6F9EA"/>
<path fill-rule="evenodd" clip-rule="evenodd" d="M107.525 29.2779C107.851 29.3403 108.138 29.5299 108.325 29.8049L114.186 38.4682C114.372 38.7431 114.441 39.0806 114.378 39.4064C114.315 39.7322 114.125 40.0194 113.849 40.2048C111.039 42.0975 110.314 45.9001 112.217 48.6971C112.404 48.9715 112.474 49.3089 112.412 49.6349C112.349 49.9609 112.16 50.2487 111.885 50.4347L68.1266 80.0602C67.5552 80.447 66.7784 80.2974 66.3915 79.7261L52.265 58.8641C52.0792 58.5897 52.01 58.2527 52.0727 57.9273C52.1353 57.6019 52.3247 57.3147 52.5991 57.1289L96.3575 27.5035C96.9279 27.1173 97.7033 27.2657 98.0909 27.8351C99.9985 30.6379 103.795 31.372 106.587 29.4721C106.861 29.2853 107.199 29.2155 107.525 29.2779ZM106.906 32.1679C103.486 33.8318 99.3635 33.026 96.8 30.2216L55.0347 58.4977L67.7602 77.2905L109.522 49.0171C107.857 45.599 108.645 41.4666 111.465 38.9061L106.906 32.1679Z" fill="#474747"/>
<path fill-rule="evenodd" clip-rule="evenodd" d="M102.456 23.3791C103.027 22.9922 103.804 23.1416 104.191 23.713L118.315 44.5682C118.702 45.1395 118.553 45.9164 117.981 46.3033L68.1152 80.0759C67.5439 80.4628 66.767 80.3134 66.3801 79.742L52.2556 58.8868C51.8687 58.3155 52.0182 57.5386 52.5895 57.1517L102.456 23.3791ZM102.822 26.1488L55.0253 58.5201L67.7485 77.3062L115.546 44.9349L102.822 26.1488Z" fill="#474747"/>
<path d="M85.7476 55.4219C89.4406 57.5458 94.1561 56.2737 96.2799 52.5807C98.4038 48.8877 97.1317 44.1723 93.4387 42.0484C89.7457 39.9246 85.0302 41.1966 82.9064 44.8896C80.7826 48.5826 82.0546 53.2981 85.7476 55.4219Z" fill="#77BA85"/>
<path fill-rule="evenodd" clip-rule="evenodd" d="M92.8161 43.1311C89.7213 41.3513 85.7696 42.4173 83.9898 45.5121C82.2099 48.6069 83.2759 52.5586 86.3708 54.3384C89.4656 56.1182 93.4173 55.0522 95.1971 51.9574C96.9769 48.8626 95.9109 44.9109 92.8161 43.1311ZM81.8236 44.2663C84.2914 39.9751 89.7707 38.497 94.0618 40.9649C98.353 43.4327 99.8311 48.912 97.3633 53.2032C94.8954 57.4943 89.4162 58.9724 85.125 56.5046C80.8338 54.0367 79.3557 48.5575 81.8236 44.2663Z" fill="#474747"/>
<path d="M58.8098 106.187L17.8705 82.6432C11.4176 78.9322 9.1894 70.6722 12.9004 64.2194L39.3595 18.2114C43.0705 11.7585 51.3306 9.5303 57.7834 13.2413L98.7227 36.7854C105.176 40.4964 107.404 48.7565 103.693 55.2093L77.2337 101.217C73.5115 107.69 65.2821 109.91 58.8098 106.187Z" fill="#F58870"/>
<path d="M58.8098 106.187L17.8705 82.6432C11.4176 78.9322 9.1894 70.6722 12.9004 64.2194L39.3595 18.2114C43.0705 11.7585 51.3306 9.5303 57.7834 13.2413L98.7227 36.7854C105.176 40.4964 107.404 48.7565 103.693 55.2093L77.2337 101.217C73.5115 107.69 65.2821 109.91 58.8098 106.187Z" fill="#F58870"/>
<path d="M60.1663 103.828L19.2269 80.2843C12.7741 76.5733 10.5458 68.3133 14.2568 61.8605L12.9002 64.2194C9.18924 70.6722 11.4175 78.9322 17.8703 82.6432L58.8097 106.187C65.2625 109.898 73.5225 107.67 77.2335 101.217L78.5901 98.8584C74.8791 105.311 66.6386 107.551 60.1663 103.828Z" fill="#DD7868"/>
<path d="M98.7227 36.7854L57.7834 13.2413C51.3306 9.5303 43.3172 11.3296 39.9089 17.2561L38.4626 19.771C41.8709 13.8445 49.8843 12.0451 56.3371 15.7561L97.2765 39.3003C103.729 43.0113 106.204 50.8424 102.796 56.7689L104.242 54.254C107.65 48.3276 105.195 40.5077 98.7227 36.7854Z" fill="#FFA399"/>
<path opacity="0.3" d="M68.6516 57.4971L58.1243 51.4429C56.1943 50.3329 55.5233 47.8457 56.6333 45.9157L69.022 24.3738C70.1319 22.4438 72.6191 21.7729 74.5491 22.8828L88.5855 30.9551L74.1787 56.0061C73.0688 57.9361 70.601 58.6182 68.6516 57.4971Z" fill="#474747"/>
<path opacity="0.3" fill-rule="evenodd" clip-rule="evenodd" d="M73.926 23.9661C72.5942 23.2002 70.8708 23.6651 70.1048 24.9969L57.7161 46.5388C56.9502 47.8706 57.4151 49.594 58.7469 50.36L69.2742 56.4142C70.6216 57.189 72.3272 56.7191 73.0954 55.3834L86.8793 31.4155L73.926 23.9661ZM67.9386 23.7511C69.3926 21.2229 72.6436 20.3459 75.1718 21.7999L89.2081 29.8722C89.8063 30.2162 90.0123 30.98 89.6683 31.5781L75.2616 56.6291C73.8099 59.1534 70.58 60.0478 68.0284 58.5804L57.5012 52.5261C54.973 51.0722 54.096 47.8212 55.5499 45.293L67.9386 23.7511Z" fill="#474747"/>
<path fill-rule="evenodd" clip-rule="evenodd" d="M57.1607 14.3238C51.3061 10.9568 43.8099 12.979 40.4429 18.8337L13.9838 64.8417C10.6168 70.6964 12.639 78.1926 18.4936 81.5596L59.433 105.104C65.3071 108.482 72.7726 106.468 76.1508 100.594L102.61 54.5858C105.977 48.7312 103.955 41.235 98.1001 37.868L57.1607 14.3238ZM38.2767 17.5879C42.3317 10.5369 51.3555 8.10263 58.4065 12.1576L99.3459 35.7018C106.397 39.7568 108.831 48.7806 104.776 55.8316L78.317 101.84C74.2508 108.91 65.2577 111.336 58.1872 107.27L17.2478 83.7258C10.1968 79.6708 7.76255 70.6469 11.8176 63.5959L38.2767 17.5879Z" fill="#474747"/>
<path opacity="0.46" fill-rule="evenodd" clip-rule="evenodd" d="M54.5257 18.9054C53.6654 18.4107 52.7501 18.1114 51.8286 17.9918C51.1443 17.9029 50.6616 17.2761 50.7504 16.5918C50.8393 15.9075 51.4661 15.4249 52.1504 15.5137C53.3919 15.675 54.622 16.0781 55.7714 16.7392L59.1831 18.7012C59.7812 19.0452 59.9873 19.809 59.6433 20.4072C59.2993 21.0054 58.5355 21.2114 57.9373 20.8674L54.5257 18.9054ZM64.3003 23.0855C64.6443 22.4873 65.4081 22.2812 66.0063 22.6252L72.8295 26.5493C73.4277 26.8933 73.6337 27.6571 73.2897 28.2552C72.9457 28.8534 72.1819 29.0595 71.5837 28.7155L64.7605 24.7914C64.1623 24.4474 63.9563 23.6836 64.3003 23.0855ZM77.9467 30.9335C78.2908 30.3353 79.0546 30.1293 79.6527 30.4733L86.476 34.3973C87.0741 34.7413 87.2802 35.5051 86.9362 36.1033C86.5922 36.7015 85.8284 36.9075 85.2302 36.5635L78.407 32.6395C77.8088 32.2955 77.6027 31.5317 77.9467 30.9335ZM91.5932 38.7815C91.9372 38.1834 92.701 37.9773 93.2992 38.3213L96.7108 40.2833C97.8603 40.9444 98.8274 41.8048 99.5911 42.7968C100.012 43.3436 99.9101 44.1281 99.3634 44.549C98.8166 44.97 98.0321 44.868 97.6111 44.3212C97.0443 43.5849 96.3253 42.9443 95.465 42.4495L92.0534 40.4875C91.4552 40.1435 91.2492 39.3797 91.5932 38.7815ZM100.466 48.6368C101.15 48.7256 101.633 49.3524 101.544 50.0367C101.383 51.2782 100.98 52.5083 100.319 53.6578L98.1427 57.4414C97.7987 58.0396 97.0349 58.2456 96.4368 57.9016C95.8386 57.5576 95.6325 56.7938 95.9766 56.1956L98.1525 52.412C98.6472 51.5518 98.9465 50.6364 99.0661 49.7149C99.155 49.0306 99.7818 48.5479 100.466 48.6368ZM46.6627 17.6946C47.0837 18.2413 46.9817 19.0258 46.4349 19.4468C45.6986 20.0137 45.0579 20.7327 44.5632 21.5929L42.3863 25.3782C42.0423 25.9763 41.2785 26.1824 40.6803 25.8384C40.0822 25.4944 39.8761 24.7306 40.2201 24.1324L42.397 20.3471C43.0581 19.1976 43.9185 18.2305 44.9105 17.4668C45.4572 17.0458 46.2417 17.1478 46.6627 17.6946ZM93.3306 63.3027C93.9288 63.6467 94.1348 64.4105 93.7908 65.0087L89.4389 72.576C89.0949 73.1741 88.3311 73.3802 87.7329 73.0362C87.1347 72.6922 86.9287 71.9284 87.2727 71.3302L91.6246 63.7629C91.9686 63.1647 92.7324 62.9587 93.3306 63.3027ZM37.5723 31.2427C38.1705 31.5867 38.3765 32.3505 38.0325 32.9487L33.6787 40.5192C33.3347 41.1174 32.5709 41.3234 31.9727 40.9794C31.3746 40.6354 31.1685 39.8716 31.5125 39.2734L35.8663 31.7029C36.2103 31.1047 36.9741 30.8987 37.5723 31.2427ZM84.6268 78.4373C85.2249 78.7813 85.431 79.5451 85.087 80.1432L80.735 87.7105C80.391 88.3087 79.6272 88.5147 79.0291 88.1707C78.4309 87.8267 78.2248 87.0629 78.5689 86.4647L82.9208 78.8975C83.2648 78.2993 84.0286 78.0932 84.6268 78.4373ZM28.8647 46.3838C29.4629 46.7278 29.6689 47.4916 29.3249 48.0897L24.9711 55.6603C24.6271 56.2584 23.8633 56.4645 23.2652 56.1205C22.667 55.7765 22.4609 55.0127 22.8049 54.4145L27.1587 46.844C27.5027 46.2458 28.2665 46.0398 28.8647 46.3838ZM75.9229 93.5718C76.5211 93.9158 76.7271 94.6796 76.3831 95.2778L74.2072 99.0614C73.5461 100.211 72.6857 101.178 71.6937 101.942C71.1469 102.363 70.3624 102.261 69.9415 101.714C69.5205 101.167 69.6225 100.383 70.1693 99.9618C70.9056 99.3949 71.5462 98.6759 72.041 97.8157L74.2169 94.032C74.5609 93.4338 75.3247 93.2278 75.9229 93.5718ZM20.1571 61.5248C20.7553 61.8688 20.9613 62.6326 20.6173 63.2308L18.4404 67.0161C17.946 67.8759 17.6468 68.7907 17.5272 69.7113C17.4383 70.3956 16.8114 70.8782 16.1272 70.7893C15.4429 70.7003 14.9602 70.0735 15.0492 69.3892C15.2104 68.1485 15.6135 66.9191 16.2742 65.7703L18.4511 61.985C18.7952 61.3869 19.559 61.1808 20.1571 61.5248ZM65.8537 102.817C65.7649 103.501 65.1381 103.984 64.4538 103.895C63.2123 103.734 61.9822 103.33 60.8327 102.669L57.4211 100.707C56.8229 100.363 56.6169 99.5995 56.9609 99.0014C57.3049 98.4032 58.0687 98.1971 58.6669 98.5411L62.0785 100.503C62.9387 100.998 63.8541 101.297 64.7756 101.417C65.4599 101.506 65.9426 102.132 65.8537 102.817ZM17.2317 74.8725C17.7773 74.4501 18.5621 74.55 18.9845 75.0957C19.5521 75.8288 20.2721 76.4658 21.134 76.9561L21.1392 76.959L24.5508 78.921C25.1489 79.265 25.355 80.0288 25.011 80.627C24.667 81.2252 23.9032 81.4312 23.305 81.0872L19.8958 79.1266C18.7436 78.4708 17.7742 77.6144 17.0085 76.6253C16.5861 76.0797 16.686 75.2949 17.2317 74.8725ZM29.668 83.3053C30.012 82.7071 30.7758 82.501 31.374 82.8451L38.1972 86.7691C38.7954 87.1131 39.0014 87.8769 38.6574 88.4751C38.3134 89.0732 37.5496 89.2793 36.9514 88.9353L30.1282 85.0112C29.53 84.6672 29.324 83.9034 29.668 83.3053ZM43.3145 91.1533C43.6585 90.5551 44.4223 90.3491 45.0204 90.6931L51.8437 94.6171C52.4418 94.9611 52.6479 95.7249 52.3039 96.3231C51.9599 96.9213 51.1961 97.1273 50.5979 96.7833L43.7747 92.8593C43.1765 92.5153 42.9705 91.7515 43.3145 91.1533Z" fill="#474747"/>
<path d="M68.3251 54.4561L57.7979 48.4018C55.8679 47.2919 55.1969 44.8047 56.3068 42.8747L69.9849 19.0909C71.0948 17.1609 73.582 16.4899 75.512 17.5999L86.0393 23.6541C87.9693 24.764 88.6402 27.2512 87.5303 29.1812L73.8523 52.965C72.7423 54.895 70.2746 55.5772 68.3251 54.4561Z" fill="#F79765"/>
<path d="M69.2556 52.8377L58.7283 46.7835C56.7983 45.6736 56.1274 43.1863 57.2373 41.2563L56.3067 42.8744C55.1968 44.8044 55.8678 47.2916 57.7978 48.4016L68.325 54.4558C70.255 55.5657 72.7422 54.8948 73.8522 52.9648L74.7827 51.3467C73.6728 53.2767 71.2051 53.9589 69.2556 52.8377Z" fill="#E27444"/>
<path d="M86.0393 23.6541L75.512 17.5999C73.582 16.4899 71.0948 17.1609 69.9849 19.0909L69.2225 20.4165C70.3324 18.4865 72.8196 17.8156 74.7496 18.9255L85.2769 24.9797C87.2069 26.0897 87.8779 28.5769 86.7679 30.5069L87.5303 29.1812C88.6402 27.2512 87.9888 24.7752 86.0393 23.6541Z" fill="#FFB797"/>
<path fill-rule="evenodd" clip-rule="evenodd" d="M74.8889 18.683C73.5571 17.9171 71.8336 18.382 71.0677 19.7138L57.3897 43.4976C56.6238 44.8294 57.0887 46.5529 58.4205 47.3188L68.9478 53.373C70.2952 54.1479 72.0008 53.6779 72.7689 52.3422L86.447 28.5584C87.2129 27.2266 86.748 25.5031 85.4162 24.7372L74.8889 18.683ZM68.9015 18.468C70.3555 15.9399 73.6065 15.0629 76.1347 16.5168L86.6619 22.571C89.1901 24.025 90.0671 27.276 88.6132 29.8042L74.9351 53.588C73.4834 56.1122 70.2536 57.0066 67.702 55.5392L57.1747 49.485C54.6466 48.031 53.7696 44.78 55.2235 42.2518L68.9015 18.468Z" fill="#474747"/>
<path opacity="0.3" d="M66.5389 46.7353C69.0368 48.1719 72.2263 47.3115 73.6628 44.8136C75.0994 42.3157 74.239 39.1262 71.7411 37.6897C69.2432 36.2532 66.0537 37.1136 64.6172 39.6114C63.1807 42.1093 64.0411 45.2988 66.5389 46.7353Z" fill="#474747"/>
<path opacity="0.3" fill-rule="evenodd" clip-rule="evenodd" d="M71.118 38.773C69.2182 37.6804 66.7926 38.3348 65.7 40.2345C64.6075 42.1342 65.2619 44.5599 67.1616 45.6524C69.0613 46.7449 71.487 46.0906 72.5795 44.1909C73.672 42.2912 73.0177 39.8655 71.118 38.773ZM63.5339 38.9887C65.3144 35.8927 69.2677 34.8262 72.3637 36.6068C75.4598 38.3873 76.5262 42.3406 74.7457 45.4366C72.9652 48.5327 69.0119 49.5991 65.9158 47.8186C62.8198 46.0381 61.7533 42.0848 63.5339 38.9887Z" fill="#474747"/>
<path opacity="0.46" fill-rule="evenodd" clip-rule="evenodd" d="M73.5436 21.0226C73.5319 21.0158 73.5211 21.0125 73.5101 21.0111C73.4952 21.0092 73.4803 21.007 73.4656 21.0046C73.4541 21.0141 73.4424 21.0234 73.4305 21.0325C73.4217 21.0393 73.414 21.0476 73.4072 21.0594L71.6975 24.0323C71.3535 24.6305 70.5897 24.8365 69.9915 24.4925C69.3933 24.1485 69.1873 23.3847 69.5313 22.7866L71.241 19.8136C71.4162 19.5089 71.646 19.2516 71.9111 19.0486C72.196 18.8305 72.5448 18.7539 72.873 18.8076C73.1296 18.5961 73.4696 18.4869 73.8256 18.5322C74.1567 18.5743 74.4848 18.6812 74.7894 18.8564L77.4212 20.3699C78.0194 20.7139 78.2254 21.4777 77.8814 22.0759C77.5374 22.6741 76.7736 22.8801 76.1755 22.5361L73.5436 21.0226ZM80.9789 23.8572C81.3229 23.2591 82.0867 23.053 82.6849 23.397L85.3167 24.9106C85.6213 25.0858 85.8786 25.3156 86.0816 25.5806C86.2998 25.8655 86.3764 26.2143 86.3226 26.5425C86.5342 26.7991 86.6434 27.1391 86.5981 27.4951C86.5559 27.8263 86.4491 28.1543 86.2739 28.4589L84.5641 31.4319C84.2201 32.0301 83.4563 32.2361 82.8582 31.8921C82.26 31.5481 82.0539 30.7843 82.3979 30.1861L84.1077 27.2132C84.1145 27.2014 84.1178 27.1906 84.1192 27.1796C84.1211 27.1647 84.1232 27.1499 84.1257 27.1352C84.1162 27.1236 84.1069 27.1119 84.0977 27.1C84.091 27.0912 84.0827 27.0835 84.0709 27.0768L81.4391 25.5632C80.8409 25.2192 80.6349 24.4554 80.9789 23.8572ZM67.8178 28.2723C68.4159 28.6163 68.622 29.3801 68.278 29.9783L64.8585 35.9242C64.5145 36.5224 63.7507 36.7284 63.1525 36.3844C62.5543 36.0404 62.3483 35.2766 62.6923 34.6785L66.1118 28.7325C66.4558 28.1343 67.2196 27.9283 67.8178 28.2723ZM80.6844 35.6719C81.2826 36.0159 81.4886 36.7797 81.1446 37.3779L77.7251 43.3238C77.3811 43.922 76.6173 44.128 76.0191 43.784C75.421 43.44 75.2149 42.6762 75.5589 42.078L78.9784 36.1321C79.3225 35.5339 80.0862 35.3279 80.6844 35.6719ZM60.9788 40.1642C61.5769 40.5082 61.783 41.272 61.439 41.8702L59.7292 44.8432C59.7225 44.8549 59.7191 44.8657 59.7177 44.8767C59.7158 44.8916 59.7137 44.9065 59.7113 44.9212C59.7207 44.9327 59.7301 44.9444 59.7392 44.9563C59.7459 44.9651 59.7543 44.9728 59.766 44.9796L62.3978 46.4931C62.996 46.8371 63.202 47.6009 62.858 48.1991C62.514 48.7973 61.7502 49.0033 61.1521 48.6593L58.5202 47.1458C58.2156 46.9706 57.9583 46.7408 57.7553 46.4757C57.5371 46.1908 57.4605 45.842 57.5143 45.5138C57.3028 45.2572 57.1935 44.9172 57.2389 44.5612C57.281 44.2301 57.3878 43.902 57.563 43.5974L59.2728 40.6244C59.6168 40.0262 60.3806 39.8202 60.9788 40.1642ZM73.8454 47.5638C74.4436 47.9078 74.6496 48.6716 74.3056 49.2698L72.5959 52.2427C72.4207 52.5474 72.1909 52.8047 71.9258 53.0077C71.641 53.2259 71.2922 53.3025 70.9639 53.2487C70.7073 53.4602 70.3673 53.5694 70.0113 53.5241C69.6802 53.482 69.3521 53.3752 69.0475 53.2L66.4157 51.6864C65.8175 51.3424 65.6115 50.5786 65.9555 49.9804C66.2995 49.3823 67.0633 49.1762 67.6615 49.5202L70.2933 51.0338C70.305 51.0405 70.3159 51.0439 70.3268 51.0453C70.3418 51.0472 70.3566 51.0493 70.3713 51.0517C70.3828 51.0422 70.3945 51.0329 70.4064 51.0238C70.4152 51.0171 70.4229 51.0087 70.4297 50.997L72.1394 48.024C72.4834 47.4258 73.2472 47.2198 73.8454 47.5638Z" fill="#474747"/>
<path d="M66.6264 45.2293C69.1242 46.6659 72.3137 45.8055 73.7502 43.3076C75.1868 40.8097 74.3264 37.6202 71.8285 36.1837C69.3306 34.7472 66.1411 35.6076 64.7046 38.1055C63.2681 40.6034 64.1285 43.7928 66.6264 45.2293Z" fill="#8F6D5D"/>
<path fill-rule="evenodd" clip-rule="evenodd" d="M71.2058 37.267C69.3061 36.1745 66.8805 36.8288 65.7879 38.7285C64.6954 40.6282 65.3498 43.0539 67.2495 44.1464C69.1492 45.2389 71.5749 44.5846 72.6674 42.6849C73.7599 40.7852 73.1056 38.3595 71.2058 37.267ZM63.6218 37.4828C65.4023 34.3867 69.3556 33.3202 72.4516 35.1008C75.5477 36.8813 76.6141 40.8346 74.8336 43.9307C73.053 47.0267 69.0998 48.0932 66.0037 46.3126C62.9077 44.5321 61.8412 40.5788 63.6218 37.4828Z" fill="#474747"/>
<path opacity="0.6" d="M72.4723 39.4856C72.2022 40.3161 71.0558 40.2795 69.6122 39.8124C68.1603 39.3147 66.9682 38.681 67.171 37.9675C67.3626 37.2735 68.9013 36.6278 70.401 36.9973C71.9202 37.3781 72.7311 38.6746 72.4723 39.4856Z" fill="#FFFCEE"/>
</g>
<defs>
<filter id="filter0_f" x="2.46777" y="2.80786" width="123.74" height="113.812" filterUnits="userSpaceOnUse" color-interpolation-filters="sRGB">
<feFlood flood-opacity="0" result="BackgroundImageFix"/>
<feBlend mode="normal" in="SourceGraphic" in2="BackgroundImageFix" result="shape"/>
<feGaussianBlur stdDeviation="1" result="effect1_foregroundBlur"/>
</filter>
</defs>
</svg>
