<svg width="53" height="53" viewBox="0 0 53 53" fill="none" xmlns="http://www.w3.org/2000/svg">
<g clip-path="url(#clip0)">
<path d="M18.786 1.31201H34.24C48.3558 1.31201 51.688 4.67043 51.688 18.7863V34.2402C51.688 48.3561 48.3296 51.6883 34.2138 51.6883H18.7598C4.64395 51.6883 1.31177 48.3298 1.31177 34.214V18.76C1.31177 4.67043 4.67018 1.31201 18.786 1.31201Z" fill="#5181B8"/>
<path d="M0 0H53V53H0V0Z" fill="#5181B8"/>
<path fill-rule="evenodd" clip-rule="evenodd" d="M42.5573 18.655C42.7934 17.8679 42.5573 17.3169 41.4553 17.3169H37.782C36.8375 17.3169 36.4177 17.8154 36.1815 18.3664C36.1815 18.3664 34.3187 22.9317 31.6687 25.8704C30.8028 26.7362 30.4355 26.9986 29.9632 26.9986C29.7271 26.9986 29.386 26.7362 29.386 25.9491V18.655C29.386 17.7105 29.1236 17.3169 28.3365 17.3169H22.5642C21.987 17.3169 21.6197 17.7629 21.6197 18.1565C21.6197 19.0486 22.9315 19.2585 23.089 21.7248V27.1298C23.089 28.3105 22.8791 28.5204 22.4068 28.5204C21.1736 28.5204 18.1301 23.955 16.3459 18.7075C15.9786 17.7367 15.6375 17.3169 14.6929 17.3169H11.0197C9.97015 17.3169 9.76025 17.8154 9.76025 18.3664C9.76025 19.3372 10.9934 24.1649 15.5588 30.5407C18.6023 34.8961 22.8791 37.2575 26.7622 37.2575C29.0974 37.2575 29.386 36.7327 29.386 35.8407V32.5347C29.386 31.4852 29.5959 31.2753 30.3568 31.2753C30.9078 31.2753 31.8261 31.5377 34.0038 33.6367C36.4964 36.1293 36.9162 37.2575 38.3068 37.2575H41.98C43.0296 37.2575 43.5543 36.7327 43.2395 35.7095C42.8984 34.6862 41.7177 33.1907 40.1434 31.4065C39.2776 30.3832 37.9919 29.3075 37.6246 28.7565C37.0736 28.0481 37.231 27.7332 37.6246 27.1298C37.6246 27.1035 42.1112 20.8065 42.5573 18.655Z" fill="white"/>
</g>
<defs>
<clipPath id="clip0">
<rect width="53" height="53" rx="8" fill="white"/>
</clipPath>
</defs>
</svg>
