<svg width="19" height="20" viewBox="0 0 19 20" fill="none" xmlns="http://www.w3.org/2000/svg">
<path d="M1 4.46729H2.84242H17.5818" fill="white"/>
<path d="M1 4.46729H2.84242H17.5818" stroke="#5862EE" stroke-width="2" stroke-linecap="round" stroke-linejoin="round"/>
<path d="M15.739 4.46667V16.6C15.739 17.0597 15.5449 17.5006 15.1994 17.8257C14.8539 18.1507 14.3852 18.3333 13.8966 18.3333H4.68447C4.19582 18.3333 3.7272 18.1507 3.38167 17.8257C3.03615 17.5006 2.84204 17.0597 2.84204 16.6V4.46667H15.739ZM5.60568 4.46667V2.73333C5.60568 2.27362 5.79979 1.83274 6.14531 1.50768C6.49083 1.18262 6.95946 1 7.4481 1H11.133C11.6216 1 12.0902 1.18262 12.4357 1.50768C12.7813 1.83274 12.9754 2.27362 12.9754 2.73333V4.46667" fill="white"/>
<path d="M5.60568 4.46667V2.73333C5.60568 2.27362 5.79979 1.83274 6.14531 1.50768C6.49083 1.18262 6.95946 1 7.4481 1H11.133C11.6216 1 12.0902 1.18262 12.4357 1.50768C12.7813 1.83274 12.9754 2.27362 12.9754 2.73333V4.46667M15.739 4.46667V16.6C15.739 17.0597 15.5449 17.5006 15.1994 17.8257C14.8539 18.1507 14.3852 18.3333 13.8966 18.3333H4.68447C4.19582 18.3333 3.7272 18.1507 3.38167 17.8257C3.03615 17.5006 2.84204 17.0597 2.84204 16.6V4.46667H15.739Z" stroke="#5862EE" stroke-width="2" stroke-linecap="round" stroke-linejoin="round"/>
<path d="M7.44873 8.80029V14.0003" stroke="#5862EE" stroke-width="2" stroke-linecap="round" stroke-linejoin="round"/>
<path d="M11.1328 8.80029V14.0003" stroke="#5862EE" stroke-width="2" stroke-linecap="round" stroke-linejoin="round"/>
</svg>
