<svg width="20" height="20" viewBox="0 0 20 20" fill="none" xmlns="http://www.w3.org/2000/svg">
<path d="M13.8864 1.72418C14.112 1.49459 14.3799 1.31246 14.6747 1.18821C14.9695 1.06395 15.2855 1 15.6046 1C15.9237 1 16.2397 1.06395 16.5345 1.18821C16.8293 1.31246 17.0972 1.49459 17.3228 1.72418C17.5484 1.95378 17.7274 2.22634 17.8495 2.52632C17.9716 2.8263 18.0345 3.14782 18.0345 3.47251C18.0345 3.79721 17.9716 4.11873 17.8495 4.4187C17.7274 4.71868 17.5484 4.99125 17.3228 5.22085L5.72502 17.0221L1 18.3333L2.28864 13.5254L13.8864 1.72418Z" stroke="#5862EE" stroke-width="2" stroke-linecap="round" stroke-linejoin="round"/>
</svg>
